<svg width="512" height="512" viewBox="0 0 512 512" fill="none" xmlns="http://www.w3.org/2000/svg">
<g clip-path="url(#clip0)">
<path d="M511.464 242.443C513.689 249.108 508.724 256 501.698 256H303.771C301.711 256 299.805 255.402 298.198 254.362C295.355 252.528 293.469 249.335 293.469 245.698V68.6816H501.698C508.724 68.6816 513.689 75.5736 511.464 82.2386L485.854 159.08C485.143 161.202 485.143 163.479 485.854 165.601L511.464 242.443Z" fill="#FFA600"/>
<path d="M293.463 241.432H403.772C415.267 241.432 424.585 232.114 424.585 220.619V68.6836H293.463V241.432Z" fill="#DA387D"/>
<path d="M398.618 218.532C397.547 219.593 396.238 220.417 394.755 220.932L298.196 254.361C295.353 252.527 293.467 249.334 293.467 245.697V218.531H398.618V218.532Z" fill="#D80A61"/>
<path d="M391.385 31.2148C397.075 31.2148 401.687 35.8268 401.687 41.5168V211.198C401.687 214.021 400.533 216.648 398.617 218.533H224.785V31.2148H391.385Z" fill="#FFA600"/>
<path d="M33.301 305.951V463.174H10.302C4.612 463.174 0 458.562 0 452.872V316.253C0 310.563 4.612 305.951 10.302 305.951H33.301Z" fill="#C8EA73"/>
<path d="M0 384.896V452.872C0 458.562 4.612 463.174 10.302 463.174H33.301V404.632C20.337 400.355 8.99 393.755 0 384.896V384.896Z" fill="#B7E445"/>
<path d="M214.374 512H193.561C187.814 512 183.154 507.341 183.154 501.594V10.407C183.154 4.659 187.814 0 193.561 0H214.374C220.121 0 224.781 4.659 224.781 10.407V501.594C224.78 507.341 220.121 512 214.374 512Z" fill="#32393F"/>
<path d="M214.374 511.999H193.561C187.814 511.999 183.154 507.34 183.154 501.593V270.568H224.78V501.592C224.78 507.34 220.121 511.999 214.374 511.999V511.999Z" fill="#32393F"/>
<path d="M286.721 338.211H266.407C278.154 338.211 287.628 328.48 287.206 316.639C286.805 305.361 277.193 296.585 265.908 296.585H183.155V254.959H155.474C146.425 254.959 137.622 257.908 130.399 263.359L85.0918 297.551C77.8688 303.002 69.0658 305.951 60.0168 305.951H33.3008V463.174L245.095 463.089C256.38 463.089 265.992 454.313 266.393 443.035C266.814 431.194 257.34 421.463 245.593 421.463H265.907C277.192 421.463 286.804 412.687 287.205 401.409C287.626 389.568 278.152 379.837 266.406 379.837H287.219C298.966 379.837 308.44 370.106 308.018 358.265C307.618 346.987 298.006 338.211 286.721 338.211V338.211Z" fill="#F1D0A5"/>
<path d="M286.722 338.212H266.408C278.155 338.212 287.629 328.481 287.207 316.64C286.806 305.362 277.194 296.586 265.909 296.586H243.654C231.6 329.157 203.781 361.526 164.759 384.055C119.302 410.3 69.8827 416.703 33.3027 404.633V463.175L245.097 463.09C256.382 463.09 265.994 454.314 266.395 443.036C266.816 431.195 257.342 421.464 245.596 421.464H265.91C277.195 421.464 286.807 412.688 287.208 401.41C287.629 389.569 278.155 379.838 266.409 379.838H287.222C298.969 379.838 308.443 370.107 308.021 358.266C307.619 346.988 298.007 338.212 286.722 338.212V338.212Z" fill="#F1B986"/>
<path d="M286.514 322.756C284.155 331.657 276.037 338.209 266.405 338.209H183.156C178.891 338.209 175.43 334.747 175.43 330.483C175.43 326.218 178.891 322.757 183.156 322.757H286.514V322.756Z" fill="#D5985C"/>
<path d="M307.314 364.428C304.934 373.298 296.847 379.839 287.215 379.839H266.405C266.817 379.839 267.229 379.849 267.631 379.88H183.156C178.891 379.88 175.43 376.419 175.43 372.154C175.43 367.889 178.891 364.428 183.156 364.428H307.314Z" fill="#D5985C"/>
<path d="M286.505 406.016C284.053 414.989 275.595 421.469 265.912 421.469H183.158C178.893 421.469 175.432 418.008 175.432 413.743C175.432 409.468 178.893 406.017 183.158 406.017H286.505V406.016Z" fill="#D5985C"/>
</g>
<defs>
<clipPath id="clip0">
<rect width="512" height="512" fill="white"/>
</clipPath>
</defs>
</svg>
