<svg width="218" height="334" viewBox="0 0 218 334" fill="none" xmlns="http://www.w3.org/2000/svg">
<g clip-path="url(#clip0)">
<circle cx="4.62017" cy="4.62017" r="4.62017" fill="#2F37A4" fill-opacity="0.08"/>
<circle cx="4.62017" cy="28.7374" r="4.62017" fill="#2F37A4" fill-opacity="0.08"/>
<circle cx="4.62017" cy="52.8545" r="4.62017" fill="#2F37A4" fill-opacity="0.08"/>
<circle cx="4.62017" cy="76.9722" r="4.62017" fill="#2F37A4" fill-opacity="0.08"/>
<circle cx="4.62017" cy="101.089" r="4.62017" fill="#2F37A4" fill-opacity="0.08"/>
<circle cx="4.62017" cy="125.207" r="4.62017" fill="#2F37A4" fill-opacity="0.08"/>
<circle cx="4.62017" cy="149.324" r="4.62017" fill="#2F37A4" fill-opacity="0.08"/>
<circle cx="4.62017" cy="173.441" r="4.62017" fill="#2F37A4" fill-opacity="0.08"/>
<circle cx="4.62017" cy="197.559" r="4.62017" fill="#2F37A4" fill-opacity="0.08"/>
<circle cx="4.62017" cy="221.676" r="4.62017" fill="#2F37A4" fill-opacity="0.08"/>
<circle cx="4.62017" cy="245.793" r="4.62017" fill="#2F37A4" fill-opacity="0.08"/>
<circle cx="4.62017" cy="269.911" r="4.62017" fill="#2F37A4" fill-opacity="0.08"/>
<circle cx="4.62017" cy="294.028" r="4.62017" fill="#2F37A4" fill-opacity="0.08"/>
<circle cx="4.62017" cy="318.145" r="4.62017" fill="#2F37A4" fill-opacity="0.08"/>
<circle cx="30.6788" cy="4.62017" r="4.62017" fill="#2F37A4" fill-opacity="0.08"/>
<circle cx="30.6788" cy="28.7374" r="4.62017" fill="#2F37A4" fill-opacity="0.08"/>
<circle cx="30.6788" cy="52.8545" r="4.62017" fill="#2F37A4" fill-opacity="0.08"/>
<circle cx="30.6788" cy="76.9722" r="4.62017" fill="#2F37A4" fill-opacity="0.08"/>
<circle cx="30.6788" cy="101.089" r="4.62017" fill="#2F37A4" fill-opacity="0.08"/>
<circle cx="30.6788" cy="125.207" r="4.62017" fill="#2F37A4" fill-opacity="0.08"/>
<circle cx="30.6788" cy="149.324" r="4.62017" fill="#2F37A4" fill-opacity="0.08"/>
<circle cx="30.6788" cy="173.441" r="4.62017" fill="#2F37A4" fill-opacity="0.08"/>
<circle cx="30.6788" cy="197.559" r="4.62017" fill="#2F37A4" fill-opacity="0.08"/>
<circle cx="30.6788" cy="221.676" r="4.62017" fill="#2F37A4" fill-opacity="0.08"/>
<circle cx="30.6788" cy="245.793" r="4.62017" fill="#2F37A4" fill-opacity="0.08"/>
<circle cx="30.6788" cy="269.911" r="4.62017" fill="#2F37A4" fill-opacity="0.08"/>
<circle cx="30.6788" cy="294.028" r="4.62017" fill="#2F37A4" fill-opacity="0.08"/>
<circle cx="30.6788" cy="318.145" r="4.62017" fill="#2F37A4" fill-opacity="0.08"/>
<circle cx="56.7354" cy="4.62017" r="4.62017" fill="#2F37A4" fill-opacity="0.08"/>
<circle cx="56.7354" cy="28.7374" r="4.62017" fill="#2F37A4" fill-opacity="0.08"/>
<circle cx="56.7354" cy="52.8545" r="4.62017" fill="#2F37A4" fill-opacity="0.08"/>
<circle cx="56.7354" cy="76.9722" r="4.62017" fill="#2F37A4" fill-opacity="0.08"/>
<circle cx="56.7354" cy="101.089" r="4.62017" fill="#2F37A4" fill-opacity="0.08"/>
<circle cx="56.7354" cy="125.207" r="4.62017" fill="#2F37A4" fill-opacity="0.08"/>
<circle cx="56.7354" cy="149.324" r="4.62017" fill="#2F37A4" fill-opacity="0.08"/>
<circle cx="56.7354" cy="173.441" r="4.62017" fill="#2F37A4" fill-opacity="0.08"/>
<circle cx="56.7354" cy="197.559" r="4.62017" fill="#2F37A4" fill-opacity="0.08"/>
<circle cx="56.7354" cy="221.676" r="4.62017" fill="#2F37A4" fill-opacity="0.08"/>
<circle cx="56.7354" cy="245.793" r="4.62017" fill="#2F37A4" fill-opacity="0.08"/>
<circle cx="56.7354" cy="269.911" r="4.62017" fill="#2F37A4" fill-opacity="0.08"/>
<circle cx="56.7354" cy="294.028" r="4.62017" fill="#2F37A4" fill-opacity="0.08"/>
<circle cx="56.7354" cy="318.145" r="4.62017" fill="#2F37A4" fill-opacity="0.08"/>
<circle cx="82.794" cy="4.62017" r="4.62017" fill="#2F37A4" fill-opacity="0.08"/>
<circle cx="82.794" cy="28.7374" r="4.62017" fill="#2F37A4" fill-opacity="0.08"/>
<circle cx="82.794" cy="52.8545" r="4.62017" fill="#2F37A4" fill-opacity="0.08"/>
<circle cx="82.794" cy="76.9722" r="4.62017" fill="#2F37A4" fill-opacity="0.08"/>
<circle cx="82.794" cy="101.089" r="4.62017" fill="#2F37A4" fill-opacity="0.08"/>
<circle cx="82.794" cy="125.207" r="4.62017" fill="#2F37A4" fill-opacity="0.08"/>
<circle cx="82.794" cy="149.324" r="4.62017" fill="#2F37A4" fill-opacity="0.08"/>
<circle cx="82.794" cy="173.441" r="4.62017" fill="#2F37A4" fill-opacity="0.08"/>
<circle cx="82.794" cy="197.559" r="4.62017" fill="#2F37A4" fill-opacity="0.08"/>
<circle cx="82.794" cy="221.676" r="4.62017" fill="#2F37A4" fill-opacity="0.08"/>
<circle cx="82.794" cy="245.793" r="4.62017" fill="#2F37A4" fill-opacity="0.08"/>
<circle cx="82.794" cy="269.911" r="4.62017" fill="#2F37A4" fill-opacity="0.08"/>
<circle cx="82.794" cy="294.028" r="4.62017" fill="#2F37A4" fill-opacity="0.08"/>
<circle cx="82.794" cy="318.145" r="4.62017" fill="#2F37A4" fill-opacity="0.08"/>
<circle cx="108.851" cy="4.62017" r="4.62017" fill="#2F37A4" fill-opacity="0.08"/>
<circle cx="108.851" cy="28.7374" r="4.62017" fill="#2F37A4" fill-opacity="0.08"/>
<circle cx="108.851" cy="52.8545" r="4.62017" fill="#2F37A4" fill-opacity="0.08"/>
<circle cx="108.851" cy="76.9722" r="4.62017" fill="#2F37A4" fill-opacity="0.08"/>
<circle cx="108.851" cy="101.089" r="4.62017" fill="#2F37A4" fill-opacity="0.08"/>
<circle cx="108.851" cy="125.207" r="4.62017" fill="#2F37A4" fill-opacity="0.08"/>
<circle cx="108.851" cy="149.324" r="4.62017" fill="#2F37A4" fill-opacity="0.08"/>
<circle cx="108.851" cy="173.441" r="4.62017" fill="#2F37A4" fill-opacity="0.08"/>
<circle cx="108.851" cy="197.559" r="4.62017" fill="#2F37A4" fill-opacity="0.08"/>
<circle cx="108.851" cy="221.676" r="4.62017" fill="#2F37A4" fill-opacity="0.08"/>
<circle cx="108.851" cy="245.793" r="4.62017" fill="#2F37A4" fill-opacity="0.08"/>
<circle cx="108.851" cy="269.911" r="4.62017" fill="#2F37A4" fill-opacity="0.08"/>
<circle cx="108.851" cy="294.028" r="4.62017" fill="#2F37A4" fill-opacity="0.08"/>
<circle cx="108.851" cy="318.145" r="4.62017" fill="#2F37A4" fill-opacity="0.08"/>
<circle cx="134.909" cy="4.62017" r="4.62017" fill="#2F37A4" fill-opacity="0.08"/>
<circle cx="134.909" cy="28.7374" r="4.62017" fill="#2F37A4" fill-opacity="0.08"/>
<circle cx="134.909" cy="52.8545" r="4.62017" fill="#2F37A4" fill-opacity="0.08"/>
<circle cx="134.909" cy="76.9722" r="4.62017" fill="#2F37A4" fill-opacity="0.08"/>
<circle cx="134.909" cy="101.089" r="4.62017" fill="#2F37A4" fill-opacity="0.08"/>
<circle cx="134.909" cy="125.207" r="4.62017" fill="#2F37A4" fill-opacity="0.08"/>
<circle cx="134.909" cy="149.324" r="4.62017" fill="#2F37A4" fill-opacity="0.08"/>
<circle cx="134.909" cy="173.441" r="4.62017" fill="#2F37A4" fill-opacity="0.08"/>
<circle cx="134.909" cy="197.559" r="4.62017" fill="#2F37A4" fill-opacity="0.08"/>
<circle cx="134.909" cy="221.676" r="4.62017" fill="#2F37A4" fill-opacity="0.08"/>
<circle cx="134.909" cy="245.793" r="4.62017" fill="#2F37A4" fill-opacity="0.08"/>
<circle cx="134.909" cy="269.911" r="4.62017" fill="#2F37A4" fill-opacity="0.08"/>
<circle cx="134.909" cy="294.028" r="4.62017" fill="#2F37A4" fill-opacity="0.08"/>
<circle cx="134.909" cy="318.145" r="4.62017" fill="#2F37A4" fill-opacity="0.08"/>
<circle cx="160.968" cy="4.62017" r="4.62017" fill="#2F37A4" fill-opacity="0.08"/>
<circle cx="160.968" cy="28.7374" r="4.62017" fill="#2F37A4" fill-opacity="0.08"/>
<circle cx="160.968" cy="52.8545" r="4.62017" fill="#2F37A4" fill-opacity="0.08"/>
<circle cx="160.968" cy="76.9722" r="4.62017" fill="#2F37A4" fill-opacity="0.08"/>
<circle cx="160.968" cy="101.089" r="4.62017" fill="#2F37A4" fill-opacity="0.08"/>
<circle cx="160.968" cy="125.207" r="4.62017" fill="#2F37A4" fill-opacity="0.08"/>
<circle cx="160.968" cy="149.324" r="4.62017" fill="#2F37A4" fill-opacity="0.08"/>
<circle cx="160.968" cy="173.441" r="4.62017" fill="#2F37A4" fill-opacity="0.08"/>
<circle cx="160.968" cy="197.559" r="4.62017" fill="#2F37A4" fill-opacity="0.08"/>
<circle cx="160.968" cy="221.676" r="4.62017" fill="#2F37A4" fill-opacity="0.08"/>
<circle cx="160.968" cy="245.793" r="4.62017" fill="#2F37A4" fill-opacity="0.08"/>
<circle cx="160.968" cy="269.911" r="4.62017" fill="#2F37A4" fill-opacity="0.08"/>
<circle cx="160.968" cy="294.028" r="4.62017" fill="#2F37A4" fill-opacity="0.08"/>
<circle cx="160.968" cy="318.145" r="4.62017" fill="#2F37A4" fill-opacity="0.08"/>
<circle cx="187.024" cy="4.62017" r="4.62017" fill="#2F37A4" fill-opacity="0.08"/>
<circle cx="187.024" cy="28.7374" r="4.62017" fill="#2F37A4" fill-opacity="0.08"/>
<circle cx="187.024" cy="52.8545" r="4.62017" fill="#2F37A4" fill-opacity="0.08"/>
<circle cx="187.024" cy="76.9722" r="4.62017" fill="#2F37A4" fill-opacity="0.08"/>
<circle cx="187.024" cy="101.089" r="4.62017" fill="#2F37A4" fill-opacity="0.08"/>
<circle cx="187.024" cy="125.207" r="4.62017" fill="#2F37A4" fill-opacity="0.08"/>
<circle cx="187.024" cy="149.324" r="4.62017" fill="#2F37A4" fill-opacity="0.08"/>
<circle cx="187.024" cy="173.441" r="4.62017" fill="#2F37A4" fill-opacity="0.08"/>
<circle cx="187.024" cy="197.559" r="4.62017" fill="#2F37A4" fill-opacity="0.08"/>
<circle cx="187.024" cy="221.676" r="4.62017" fill="#2F37A4" fill-opacity="0.08"/>
<circle cx="187.024" cy="245.793" r="4.62017" fill="#2F37A4" fill-opacity="0.08"/>
<circle cx="187.024" cy="269.911" r="4.62017" fill="#2F37A4" fill-opacity="0.08"/>
<circle cx="187.024" cy="294.028" r="4.62017" fill="#2F37A4" fill-opacity="0.08"/>
<circle cx="187.024" cy="318.145" r="4.62017" fill="#2F37A4" fill-opacity="0.08"/>
<circle cx="213.083" cy="4.62017" r="4.62017" fill="#2F37A4" fill-opacity="0.08"/>
<circle cx="213.083" cy="28.7374" r="4.62017" fill="#2F37A4" fill-opacity="0.08"/>
<circle cx="213.083" cy="52.8545" r="4.62017" fill="#2F37A4" fill-opacity="0.08"/>
<circle cx="213.083" cy="76.9722" r="4.62017" fill="#2F37A4" fill-opacity="0.08"/>
<circle cx="213.083" cy="101.089" r="4.62017" fill="#2F37A4" fill-opacity="0.08"/>
<circle cx="213.083" cy="125.207" r="4.62017" fill="#2F37A4" fill-opacity="0.08"/>
<circle cx="213.083" cy="149.324" r="4.62017" fill="#2F37A4" fill-opacity="0.08"/>
<circle cx="213.083" cy="173.441" r="4.62017" fill="#2F37A4" fill-opacity="0.08"/>
<circle cx="213.083" cy="197.559" r="4.62017" fill="#2F37A4" fill-opacity="0.08"/>
<circle cx="213.083" cy="221.676" r="4.62017" fill="#2F37A4" fill-opacity="0.08"/>
<circle cx="213.083" cy="245.793" r="4.62017" fill="#2F37A4" fill-opacity="0.08"/>
<circle cx="213.083" cy="269.911" r="4.62017" fill="#2F37A4" fill-opacity="0.08"/>
<circle cx="213.083" cy="294.028" r="4.62017" fill="#2F37A4" fill-opacity="0.08"/>
<circle cx="213.083" cy="318.145" r="4.62017" fill="#2F37A4" fill-opacity="0.08"/>
</g>
<defs>
<clipPath id="clip0">
<rect width="218" height="334" fill="white"/>
</clipPath>
</defs>
</svg>
