<svg width="2605" height="1819" viewBox="0 0 2605 1819" fill="none" xmlns="http://www.w3.org/2000/svg">
<path opacity="0.1" d="M223.76 1806.96H2501.23C2690 1649.49 2592.86 1175.65 2435.18 1079.59C2265.46 976.19 2534.96 618.6 2273.51 502.53C2102.8 426.75 1831.3 509.35 1867.82 306.59C1918.46 25.4304 1326.55 -46.6096 890.47 29.1804C419.02 111.12 849.55 513.97 331.09 595.14C64.4904 636.88 116.01 993.96 140.87 1067.75C162.52 1132.02 305.76 1233.96 106.69 1374.34C-185.2 1580.18 216.88 1803.17 223.76 1806.96Z" fill="#9BC1F9"/>
<path d="M2246.74 604.28C2246.74 604.28 2209.46 685.45 2184.37 719.73C2159.28 754.02 2135.38 786.8 2115.36 881.96C2095.34 977.12 2098.77 986.68 2093.3 1011.26C2087.82 1035.84 2052.16 1135.42 2051.96 1153.68C2051.75 1171.94 1979.9 1275.89 1961.49 1324.54C1943.08 1373.19 1910.48 1442.69 1912.31 1478.08L1920.5 1476C1920.5 1476 1927.18 1393.5 1983.98 1310.12C2040.78 1226.74 2032.66 1211 2097.16 1168.16C2161.67 1125.33 2203.33 1007 2203.33 1007C2203.33 1007 2268.95 878.48 2265.89 811.67C2262.83 744.86 2280.26 684.61 2246.74 604.28Z" fill="#023296"/>
<path d="M2159.43 479.44C2159.43 479.44 2157.26 532.76 2140.06 564.43C2122.86 596.1 2108.05 615.34 2104.93 649.61C2101.81 683.88 2091.01 772.22 2043.05 815.35C1995.09 858.48 1988.97 987.71 1952.47 1026.81C1915.97 1065.9 1911.2 1094 1917.94 1161.05C1924.68 1228.1 1947.58 1321.02 1894.63 1442.31L1882.66 1412.14C1882.66 1412.14 1920.54 1312.36 1911.37 1253.93C1902.2 1195.5 1870.29 1107.22 1881.97 1064.88C1893.65 1022.54 1850.22 1014.27 1876.37 950.23C1902.52 886.19 1891.78 863.94 1927.39 808.57C1927.39 808.57 1931.04 805.98 1940.4 759.13C1949.76 712.28 2025.23 626.42 2060.01 597.12C2094.77 567.83 2144.89 520.87 2159.43 479.44Z" fill="#023296"/>
<path d="M2017.78 743.431C2017.78 743.431 1976.13 814.731 1975.54 860.631C1974.95 906.521 1979.92 943.851 1958.85 1006.7C1937.78 1069.55 1979.6 1109.28 1967.55 1143.98C1955.5 1178.68 1954.56 1219.76 1954.93 1250.91C1955.3 1282.06 1907.23 1385.17 1899.91 1437.37C1892.59 1489.57 1901.94 1489.75 1901.94 1489.75C1901.94 1489.75 1909.91 1420.83 1920.97 1398.04C1932.03 1375.25 1965.66 1296.68 1973.52 1266.28C1981.38 1235.88 2002.67 1216.37 2021.04 1164.88C2039.41 1113.4 2065.53 1070.03 2063.53 996.981C2061.54 923.911 2090.94 846.801 2017.78 743.431Z" fill="#F47458"/>
<path d="M1929.61 1441.9C1929.61 1441.9 1949.03 1351.41 2030.93 1342.37C2112.83 1333.33 2160.93 1349.53 2218.79 1283.41C2276.65 1217.29 2310.25 1112.38 2328.73 1094.32C2328.73 1094.32 2299.66 1079.37 2251.33 1124.55C2203 1169.73 2169.06 1204 2141.08 1230.31C2113.1 1256.62 2090.38 1239.46 2060.84 1256.81C2036.09 1271.35 2004.07 1313.35 1989.97 1335.35C1985.39 1342.5 1979.96 1349.06 1973.72 1354.81C1968.05 1360.05 1961.29 1366.46 1956.95 1371.19C1948.28 1380.64 1923.27 1442.22 1923.27 1442.22L1929.61 1441.9Z" fill="#F47458"/>
<path d="M1900.74 1425.94C1900.74 1425.94 1929.6 1315.27 1910.27 1261.12C1890.94 1206.96 1830.42 1166.89 1832.85 1132.87C1835.28 1098.85 1874.14 1006.9 1842.46 938.45C1842.46 938.45 1830.42 999.51 1818.55 1013.1C1806.67 1026.68 1725.18 1081.46 1739.63 1153.8C1754.08 1226.14 1833.3 1243.05 1852.82 1264.35C1872.33 1285.65 1898.67 1285.62 1898.84 1299.78C1899.01 1313.94 1904.15 1365.43 1895.4 1416.24L1900.74 1425.94Z" fill="#F47458"/>
<path d="M1932.3 1351.88L1972.85 1235.08C1972.85 1235.08 1996.67 1141.14 2010.48 1062.8C2024.29 984.461 2017.78 743.431 2017.78 743.431C2017.78 743.431 1976.13 814.731 1975.54 860.631C1974.95 906.521 1979.92 943.851 1958.85 1006.7C1937.78 1069.55 1979.6 1109.28 1967.55 1143.98C1955.5 1178.68 1954.56 1219.76 1954.93 1250.91C1955.3 1282.06 1907.22 1385.17 1899.91 1437.37C1895.9 1465.97 1896.9 1478.93 1898.62 1484.83C1892.11 1439.16 1932.3 1351.88 1932.3 1351.88Z" fill="#023296"/>
<path d="M2132.02 1282.3C2095.85 1289.52 2063.51 1287.06 2020.57 1319.02C1977.63 1350.98 1952.38 1385.11 1952.38 1385.11C1952.38 1385.11 1933.08 1419.61 1925.1 1437.79C1923.95 1440.57 1923.28 1442.23 1923.28 1442.23L1929.61 1441.91C1929.61 1441.91 1949.03 1351.42 2030.93 1342.38C2112.83 1333.34 2160.93 1349.54 2218.79 1283.42C2276.65 1217.3 2310.25 1112.39 2328.73 1094.33C2328.73 1094.33 2267.19 1142.2 2229.17 1184.57C2191.14 1226.93 2168.2 1275.07 2132.02 1282.3Z" fill="#023296"/>
<path d="M1818.55 1013.08C1806.67 1026.66 1725.18 1081.44 1739.63 1153.78C1754.08 1226.12 1833.3 1243.03 1852.82 1264.33C1872.33 1285.63 1898.67 1285.6 1898.84 1299.76C1899.01 1313.92 1904.15 1365.41 1895.4 1416.22L1897.74 1420.46C1902.01 1400.63 1907.95 1370.44 1909.89 1347.51C1913.04 1310.27 1907 1294.86 1895.04 1264.69C1883.07 1234.52 1808.7 1173.08 1790.07 1140.78C1771.44 1108.48 1826 1054.48 1838.12 1028.41C1850.23 1002.34 1842.49 938.431 1842.49 938.431C1842.49 938.431 1830.42 999.501 1818.55 1013.08Z" fill="#023296"/>
<path d="M2011.88 1372.47L2024.61 1341.7C2034.49 1319.07 2059.76 1308.27 2081.07 1317.56C2134.75 1340.99 2158.09 1406.22 2133.2 1463.24L2115 1504.93C2107.03 1523.19 2109.8 1543.29 2120.55 1557.45C2130.31 1570.32 2131.91 1588.21 2125.14 1603.72L2115.55 1625.7C2105.16 1649.5 2084.95 1667.12 2060.98 1674.39C2046.96 1678.64 2034.58 1689.16 2028.03 1704.16L2014.44 1735.28C1999.42 1769.69 1960.99 1786.12 1928.6 1771.98L1910.12 1763.91C1877.73 1749.77 1863.65 1710.42 1878.67 1676.01C1902.96 1634.87 1901.02 1604.17 1892.41 1583.34C1879.76 1552.72 1879.9 1517.49 1893.59 1486.13L1895.51 1481.73C1909.96 1448.63 1937.86 1423.92 1971.09 1413.34C1985.76 1408.68 2001.05 1397.27 2011.88 1372.47Z" fill="#50BFA5"/>
<path d="M1782.66 1806.96C1808.71 1773.18 1951.56 1592.24 2044.7 1562.08C2147.51 1528.8 2050.61 1660.99 2050.61 1660.99C2050.61 1660.99 2233 1461.55 2299.93 1479.53C2361.28 1496.01 2299.93 1619.63 2299.93 1619.63C2299.93 1619.63 2369.03 1551.18 2452.83 1551.18C2534.39 1551.18 2395.85 1793.96 2388.38 1806.96H1782.66V1806.96Z" fill="#96D9C9"/>
<path d="M2332.32 1415.52C2257.8 1531.9 2203.41 1661.19 2172.32 1798.54L2167.21 1797.17C2198.18 1662.69 2252.2 1533.63 2326.6 1417.38C2343.89 1390.36 2362.56 1358.31 2394.93 1347.77C2395.56 1347.57 2395.79 1348.52 2395.2 1348.74C2365.62 1359.88 2348.5 1390.26 2332.32 1415.52Z" fill="#F47458"/>
<path d="M2190.28 1803.37C2273.55 1690.13 2374.79 1585.46 2495.17 1494.45C2496.37 1493.54 2497.99 1495.64 2496.78 1496.57C2382.61 1584.33 2281.6 1687.96 2196.61 1805.08L2190.28 1803.37Z" fill="#F47458"/>
<path d="M2339.13 1343.35C2341.05 1346.17 2348.39 1353.53 2350.55 1363.2C2353.45 1372.37 2351.16 1383.85 2350.91 1383.45C2350.36 1383.68 2359.41 1376.03 2362.23 1363.86C2365.89 1352.19 2363.33 1335.99 2358.77 1330.63C2350.91 1318.5 2337.17 1317.27 2334.5 1323.15C2331.68 1328.98 2335.27 1336.93 2339.13 1343.35Z" fill="#F47458"/>
<path d="M2356.96 1447.23C2354.18 1445.26 2346.96 1437.77 2337.34 1435.42C2328.23 1432.34 2316.71 1434.4 2317.1 1434.66C2316.86 1435.21 2324.69 1426.31 2336.91 1423.72C2348.65 1420.29 2364.79 1423.17 2370.07 1427.83C2382.04 1435.93 2383 1449.69 2377.07 1452.24C2371.17 1454.96 2363.3 1451.22 2356.96 1447.23Z" fill="#F47458"/>
<path d="M2330.05 1492.76C2327.27 1490.79 2320.06 1483.3 2310.43 1480.95C2301.32 1477.87 2289.8 1479.93 2290.19 1480.19C2289.95 1480.74 2297.78 1471.84 2310 1469.25C2321.74 1465.82 2337.88 1468.7 2343.16 1473.36C2355.13 1481.46 2356.09 1495.22 2350.16 1497.77C2344.27 1500.5 2336.39 1496.75 2330.05 1492.76Z" fill="#F47458"/>
<path d="M2426.02 1598.38C2423.24 1596.41 2416.03 1588.92 2406.4 1586.57C2397.29 1583.49 2385.77 1585.55 2386.16 1585.81C2385.92 1586.36 2393.75 1577.46 2405.97 1574.87C2417.71 1571.44 2433.85 1574.32 2439.13 1578.98C2451.1 1587.08 2452.06 1600.84 2446.13 1603.39C2440.23 1606.11 2432.36 1602.36 2426.02 1598.38Z" fill="#F47458"/>
<path d="M2475.05 1555.18C2472.27 1553.21 2465.05 1545.72 2455.43 1543.37C2446.32 1540.29 2434.8 1542.35 2435.19 1542.61C2434.95 1543.16 2442.78 1534.26 2455 1531.67C2466.74 1528.24 2482.88 1531.12 2488.16 1535.78C2500.13 1543.88 2501.09 1557.64 2495.16 1560.19C2489.26 1562.91 2481.39 1559.17 2475.05 1555.18Z" fill="#F47458"/>
<path d="M2301.49 1394.87C2303.83 1397.35 2312.24 1403.46 2315.9 1412.67C2320.21 1421.27 2319.76 1432.97 2319.45 1432.61C2318.94 1432.92 2326.67 1423.94 2327.54 1411.48C2329.31 1399.38 2324.23 1383.79 2318.89 1379.21C2309.21 1368.47 2295.45 1369.43 2293.74 1375.65C2291.87 1381.86 2296.67 1389.14 2301.49 1394.87Z" fill="#F47458"/>
<path d="M2261.92 1446.5C2265.25 1448.27 2276.88 1451.47 2282.73 1460.17C2289.35 1467.92 2290.19 1481.16 2289.75 1480.9C2289.13 1481.47 2298.04 1468.12 2297.66 1453.83C2298.48 1439.56 2290.01 1424.35 2282.54 1421.53C2268.71 1413.71 2251.01 1420.68 2249.56 1428.37C2247.89 1436.12 2254.99 1442.18 2261.92 1446.5Z" fill="#F47458"/>
<path d="M2220.29 1524.71C2223.87 1525.89 2235.87 1527.09 2243.1 1534.69C2250.93 1541.21 2253.99 1554.13 2253.51 1553.94C2252.99 1554.61 2259.53 1539.95 2256.75 1525.93C2255.16 1511.72 2244.25 1498.16 2236.41 1496.64C2221.46 1491.26 2205.19 1501.11 2205.05 1508.93C2204.7 1516.83 2212.72 1521.62 2220.29 1524.71Z" fill="#F47458"/>
<path d="M2343.5 1579.19C2346.11 1580.82 2355.39 1584.08 2359.65 1591.5C2364.59 1598.18 2364.53 1609 2364.18 1608.76C2363.64 1609.19 2371.65 1598.84 2372.15 1587.19C2373.63 1575.63 2367.61 1562.77 2361.69 1560.06C2350.88 1552.91 2336.09 1557.58 2334.47 1563.74C2332.67 1569.94 2338.1 1575.28 2343.5 1579.19Z" fill="#F47458"/>
<path d="M2407.65 1361.66C2406.09 1360.37 2402.15 1355.63 2396.56 1353.82C2391.3 1351.6 2384.4 1352.32 2384.62 1352.48C2384.45 1352.79 2389.47 1347.87 2396.82 1346.88C2403.92 1345.37 2413.34 1347.78 2416.25 1350.76C2422.98 1356.08 2422.94 1364.26 2419.32 1365.51C2415.72 1366.85 2411.22 1364.29 2407.65 1361.66Z" fill="#F47458"/>
<path d="M2392.71 1328.42C2392.78 1330.44 2394.13 1336.46 2392.15 1341.99C2390.7 1347.51 2385.92 1352.54 2385.92 1352.26C2385.57 1352.2 2392.53 1351.23 2397.8 1346.02C2403.33 1341.32 2407.18 1332.39 2406.59 1328.26C2406.49 1319.69 2399.98 1314.72 2396.78 1316.83C2393.52 1318.86 2392.8 1323.98 2392.71 1328.42Z" fill="#F47458"/>
<path d="M2510.36 1511.18C2508.8 1509.89 2504.86 1505.15 2499.27 1503.34C2494.01 1501.12 2487.11 1501.84 2487.33 1502C2487.16 1502.31 2492.19 1497.39 2499.53 1496.4C2506.63 1494.89 2516.05 1497.3 2518.96 1500.28C2525.69 1505.6 2525.65 1513.78 2522.03 1515.03C2518.43 1516.38 2513.93 1513.82 2510.36 1511.18Z" fill="#F47458"/>
<path d="M2492.33 1477.66C2492.56 1479.67 2494.41 1485.55 2492.89 1491.23C2491.9 1496.85 2487.54 1502.26 2487.52 1501.98C2487.17 1501.95 2494.03 1500.41 2498.85 1494.79C2503.98 1489.66 2507.08 1480.44 2506.16 1476.37C2505.35 1467.83 2498.47 1463.42 2495.45 1465.78C2492.36 1468.07 2492.07 1473.23 2492.33 1477.66Z" fill="#F47458"/>
<path d="M2479.79 1694.28C2403.7 1702.62 2332.83 1736.21 2264.6 1768.96C2218.59 1791.05 2220.91 1797.34 2211.54 1800.63C2210.02 1801.16 2208.5 1799.51 2209.24 1798.05C2212.85 1790.91 2222.3 1786.08 2228.87 1781.97C2236.53 1777.19 2244.52 1772.96 2252.64 1769.02C2270.01 1760.59 2287.82 1753 2305.52 1745.31C2341.53 1729.66 2378.12 1714.95 2416.17 1704.98C2437.03 1699.52 2458.25 1695.58 2479.73 1693.65C2480.14 1693.62 2480.19 1694.23 2479.79 1694.28Z" fill="#F47458"/>
<path d="M2411.21 1670.68C2411.71 1673.8 2414.96 1682.87 2412.95 1691.82C2411.76 1700.65 2405.31 1709.37 2405.27 1708.94C2404.72 1708.91 2415.32 1706.07 2422.49 1696.98C2430.16 1688.64 2434.4 1674.06 2432.7 1667.77C2430.89 1654.5 2419.86 1648.05 2415.31 1651.93C2410.63 1655.71 2410.51 1663.78 2411.21 1670.68Z" fill="#F47458"/>
<path d="M2344.17 1694.69C2344.67 1697.81 2347.92 1706.88 2345.91 1715.83C2344.72 1724.66 2338.27 1733.38 2338.23 1732.95C2337.68 1732.92 2348.28 1730.08 2355.45 1720.99C2363.12 1712.65 2367.36 1698.07 2365.66 1691.77C2363.85 1678.5 2352.82 1672.05 2348.27 1675.93C2343.6 1679.71 2343.47 1687.79 2344.17 1694.69Z" fill="#F47458"/>
<path d="M2276.06 1725.05C2276.56 1728.17 2279.81 1737.24 2277.8 1746.19C2276.61 1755.02 2270.16 1763.74 2270.12 1763.31C2269.57 1763.28 2280.17 1760.44 2287.34 1751.35C2295.01 1743.01 2299.25 1728.43 2297.55 1722.13C2295.74 1708.86 2284.71 1702.41 2280.16 1706.29C2275.48 1710.07 2275.36 1718.15 2276.06 1725.05Z" fill="#F47458"/>
<path d="M2431.22 1733.32C2429.84 1730.74 2427.18 1722.25 2420.71 1716.77C2414.91 1710.93 2405.29 1708.1 2405.5 1708.45C2405.11 1708.78 2414.51 1704.96 2424.86 1707.65C2435.17 1709.51 2446.43 1717.89 2448.69 1723.48C2454.76 1734.26 2450.23 1745.17 2444.71 1744.86C2439.16 1744.68 2434.55 1738.79 2431.22 1733.32Z" fill="#F47458"/>
<path d="M2361.49 1758C2360.11 1755.42 2357.45 1746.93 2350.97 1741.45C2345.17 1735.61 2335.55 1732.78 2335.76 1733.13C2335.37 1733.46 2344.77 1729.64 2355.12 1732.33C2365.43 1734.19 2376.69 1742.57 2378.95 1748.16C2385.02 1758.95 2380.49 1769.85 2374.97 1769.54C2369.43 1769.36 2364.83 1763.47 2361.49 1758Z" fill="#F47458"/>
<path d="M2484.32 1707.91C2483.11 1706.47 2480.32 1701.49 2475.53 1698.91C2471.11 1696.01 2464.7 1695.5 2464.88 1695.69C2464.68 1695.95 2470.08 1692.31 2476.93 1692.63C2483.65 1692.44 2491.83 1696.21 2493.99 1699.42C2499.23 1705.39 2497.83 1712.84 2494.32 1713.37C2490.81 1714 2487.14 1710.91 2484.32 1707.91Z" fill="#F47458"/>
<path d="M2476.28 1675.13C2476 1676.98 2476.23 1682.69 2473.5 1687.4C2471.25 1692.18 2466.05 1695.97 2466.1 1695.72C2465.79 1695.61 2472.3 1695.89 2477.97 1692.02C2483.8 1688.67 2488.79 1681.17 2488.95 1677.31C2490.29 1669.48 2485.2 1663.87 2481.93 1665.25C2478.62 1666.55 2477.11 1671.1 2476.28 1675.13Z" fill="#F47458"/>
<path d="M516.5 1229.04C427.09 1149.31 381.11 1034.82 358.29 952.8C333.51 863.77 329.9 792.71 329.87 792L325.01 791.7C325.04 792.41 328.67 863.99 353.6 953.62C376.63 1036.44 423.09 1152.12 513.61 1232.83L516.5 1229.04Z" fill="#F47458"/>
<path d="M340.049 771.39C344.459 791.89 340.769 811.26 331.369 825.24C316.639 814.39 305.049 797.02 300.639 776.52C296.229 756.02 299.919 736.66 309.319 722.67C324.059 733.51 335.639 750.89 340.049 771.39Z" fill="#F47458"/>
<path d="M312.631 829.769C328.041 844.099 337.041 862.929 338.791 881.059C321.881 881.829 303.271 874.969 287.871 860.629C272.471 846.299 263.461 827.469 261.721 809.339C278.621 808.569 297.221 815.439 312.631 829.769Z" fill="#F47458"/>
<path d="M305.4 891.1C324.54 897.11 340.24 910.44 349.54 926.63C335.65 935.55 317.03 938.12 297.89 932.11C278.75 926.1 263.05 912.77 253.75 896.58C267.64 887.66 286.25 885.09 305.4 891.1Z" fill="#F47458"/>
<path d="M334.88 964.88C350.04 969.66 362.17 981.899 369.04 997.349C357.54 1007.01 342.49 1010.67 327.32 1005.89C312.16 1001.11 300.03 988.87 293.16 973.42C304.66 963.76 319.72 960.1 334.88 964.88Z" fill="#F47458"/>
<path d="M360.78 859.58C372.71 847.57 388.52 842.44 403.82 844.09C404.67 860.28 399.08 876.7 387.15 888.71C375.22 900.72 359.41 905.85 344.11 904.2C343.26 888.01 348.84 871.59 360.78 859.58Z" fill="#F47458"/>
<path d="M374.61 912.46C386.55 900.45 402.35 895.32 417.65 896.97C418.5 913.16 412.91 929.58 400.98 941.59C389.05 953.6 373.24 958.73 357.94 957.08C357.09 940.88 362.67 924.47 374.61 912.46Z" fill="#F47458"/>
<path d="M462.61 1337.16C380.04 1325.12 309.38 1276.21 264.64 1237.29C216.07 1195.04 186.71 1155.12 186.42 1154.72L183.48 1156.41C183.77 1156.81 213.35 1197.03 262.23 1239.57C307.4 1278.88 378.791 1328.29 462.391 1340.47L462.61 1337.16Z" fill="#50BFA5"/>
<path d="M184.43 1138.84C194.86 1149.07 200.14 1161.74 200.05 1173.47C187.32 1172.82 173.92 1167.16 163.49 1156.94C153.06 1146.71 147.78 1134.04 147.87 1122.31C160.6 1122.96 174 1128.61 184.43 1138.84Z" fill="#50BFA5"/>
<path d="M190.891 1183.3C205.351 1185.72 217.801 1193.21 225.771 1203.08C216.231 1210.02 202.791 1213.17 188.331 1210.75C173.871 1208.33 161.421 1200.84 153.451 1190.97C162.991 1184.03 176.441 1180.88 190.891 1183.3Z" fill="#50BFA5"/>
<path d="M210.221 1221.72C223.651 1217.87 237.901 1219.59 249.511 1225.44C244.861 1235.96 235.021 1244.59 221.591 1248.45C208.161 1252.31 193.911 1250.58 182.301 1244.73C186.961 1234.21 196.791 1225.58 210.221 1221.72Z" fill="#50BFA5"/>
<path d="M255.671 1253.3C266.321 1250.26 278.061 1252.72 287.981 1259.07C285.001 1269.1 277.661 1277 267.011 1280.04C256.361 1283.08 244.621 1280.62 234.701 1274.27C237.681 1264.24 245.021 1256.34 255.671 1253.3Z" fill="#50BFA5"/>
<path d="M230.32 1182.15C232.65 1170.59 239.87 1161.54 249.39 1156.63C256.1 1165.72 259.15 1177.4 256.82 1188.96C254.49 1200.52 247.27 1209.57 237.74 1214.48C231.04 1205.4 227.99 1193.71 230.32 1182.15Z" fill="#50BFA5"/>
<path d="M258.651 1207.58C260.981 1196.02 268.201 1186.97 277.731 1182.06C284.441 1191.15 287.491 1202.83 285.161 1214.39C282.831 1225.95 275.611 1235 266.081 1239.91C259.381 1230.82 256.321 1219.14 258.651 1207.58Z" fill="#50BFA5"/>
<path d="M512.331 1584.29C417.091 1620.45 312.241 1601.35 241.061 1578.96C163.791 1554.66 108.381 1521.33 107.831 1521L105.721 1525.03C106.271 1525.37 162.091 1558.95 239.871 1583.43C311.751 1606.05 417.671 1625.33 514.101 1588.73L512.331 1584.29Z" fill="#96D9C9"/>
<path d="M96.1002 1501.65C113.39 1508.36 126.68 1521.47 133.67 1536.74C119.72 1543.87 102.02 1544.94 84.7301 1538.23C67.4401 1531.51 54.1502 1518.41 47.1602 1503.14C61.1102 1496.01 78.8102 1494.94 96.1002 1501.65Z" fill="#96D9C9"/>
<path d="M129.85 1555.21C146.71 1549.29 164.51 1551.18 178.97 1558.97C173 1573.94 160.58 1586.45 143.71 1592.37C126.85 1598.29 109.05 1596.4 94.5898 1588.61C100.56 1573.65 112.98 1561.14 129.85 1555.21Z" fill="#96D9C9"/>
<path d="M173.66 1592.89C185.64 1579.48 201.86 1572.79 217.77 1573.08C219.17 1589.62 213.91 1606.98 201.92 1620.39C189.94 1633.81 173.72 1640.5 157.81 1640.2C156.42 1623.66 161.68 1606.3 173.66 1592.89Z" fill="#96D9C9"/>
<path d="M234.97 1612.34C246.95 1598.92 263.17 1592.23 279.08 1592.53C280.48 1609.07 275.22 1626.43 263.23 1639.84C251.24 1653.25 235.03 1659.95 219.12 1659.65C217.73 1643.11 222.99 1625.76 234.97 1612.34Z" fill="#96D9C9"/>
<path d="M177.29 1549.49C166.74 1535.76 162.04 1519.21 163.16 1504.2C177.05 1505.82 191.25 1513.89 201.79 1527.62C212.34 1541.35 217.04 1557.9 215.92 1572.91C202.03 1571.29 187.83 1563.22 177.29 1549.49Z" fill="#96D9C9"/>
<path d="M240.98 1569.42C230.24 1555.85 225.28 1539.35 226.15 1524.29C240.03 1525.67 254.33 1533.5 265.08 1547.07C275.82 1560.64 280.78 1577.14 279.91 1592.2C266.02 1590.83 251.72 1583 240.98 1569.42Z" fill="#96D9C9"/>
<path d="M315.549 1617.67C318.369 1610.52 323.959 1605.55 330.519 1603.5C333.669 1610.11 334.209 1617.96 331.399 1625.11C328.579 1632.26 322.989 1637.23 316.429 1639.28C313.279 1632.67 312.729 1624.82 315.549 1617.67Z" fill="#96D9C9"/>
<path d="M716.75 1799.98C716.75 1799.98 838.099 1320.05 797.859 1271.82C742.249 1205.17 696.37 1426.26 691.87 1407.48C649.36 1230.14 638.04 1003.23 500.9 979.21C422.95 965.56 518.91 1147.94 513.13 1197.27C507.36 1246.6 366.88 1082.82 281.51 997.02C196.14 911.22 152.05 965.54 205.99 1073.43C258.15 1177.76 426.88 1291.77 392.1 1305.3C357.32 1318.83 146.17 1184.1 120.31 1241.69C88.6095 1312.31 405.34 1408.41 375.52 1424.28C345.69 1440.14 194.31 1387.9 198.45 1441.9C202.59 1495.9 406.08 1493.89 402.61 1517.64C396.98 1556.1 262.38 1469.05 256.47 1522.26C250.42 1576.69 433.54 1566.76 430.37 1609.22C428.55 1633.62 389.25 1596.82 383.46 1630.61C370.26 1707.67 611.66 1801.53 611.66 1801.53L716.75 1799.98Z" fill="#023296"/>
<path d="M809.281 1802.91C809.281 1802.91 693.791 1625.84 638.221 1592.41C579.011 1556.79 624.091 1663.44 624.091 1663.44C624.091 1663.44 503.081 1519.45 469.451 1548.71C435.821 1577.97 466.341 1611.85 466.341 1611.85C466.341 1611.85 357.701 1579.66 338.181 1619.53C308.181 1680.8 487.031 1731.61 487.031 1731.61C487.031 1731.61 410.251 1730.8 424.381 1772.17C445.671 1834.55 809.281 1802.91 809.281 1802.91Z" fill="#50BFA5"/>
<path d="M338.172 1619.52C357.702 1579.64 466.332 1611.84 466.332 1611.84C466.332 1611.84 435.802 1577.96 469.442 1548.7C503.082 1519.44 599.882 1607.02 599.882 1607.02C599.882 1607.02 589.732 1534.8 662.632 1598.42C714.692 1643.86 809.292 1802.91 809.292 1802.91L338.172 1619.52Z" fill="#96D9C9"/>
<path d="M669.09 1358.32L674.27 1354.78C580.24 1212.37 551.54 1043.31 544.02 926.55C535.86 799.85 550.18 705.67 550.33 704.74L543.91 702.87C543.76 703.81 529.33 798.62 537.52 926.07C545.09 1043.83 574.06 1214.4 669.09 1358.32Z" fill="#96D9C9"/>
<path d="M568.839 682.56C569.049 711.17 559.119 734.82 543.279 749.01C527.189 728.55 516.899 700.93 516.689 672.32C516.489 643.71 526.409 620.06 542.249 605.87C558.349 626.33 568.639 653.95 568.839 682.56Z" fill="#96D9C9"/>
<path d="M517.909 746.86C533.939 772.15 540.519 800.55 537.919 824.92C515.919 818.66 493.769 801.73 477.749 776.44C461.719 751.15 455.139 722.75 457.739 698.38C479.739 704.63 501.889 721.56 517.909 746.86Z" fill="#96D9C9"/>
<path d="M492.219 823.68C515.289 839.73 531.959 863.84 539.609 888.94C519.319 894.6 494.649 889.96 471.579 873.91C448.509 857.86 431.839 833.75 424.189 808.65C444.479 802.99 469.149 807.63 492.219 823.68Z" fill="#96D9C9"/>
<path d="M522.31 957.801C532.37 963.801 540.01 973.431 543.94 983.781C535.68 986.861 525.29 985.721 515.23 979.721C505.17 973.721 497.53 964.091 493.6 953.741C501.86 950.661 512.25 951.791 522.31 957.801Z" fill="#96D9C9"/>
<path d="M530.489 1007.48C540.549 1013.48 548.189 1023.11 552.119 1033.46C543.859 1036.54 533.469 1035.4 523.409 1029.4C513.349 1023.4 505.709 1013.77 501.779 1003.42C510.039 1000.35 520.419 1001.48 530.489 1007.48Z" fill="#96D9C9"/>
<path d="M572.009 806.38C590.599 795.85 612.339 795.96 631.619 804.67C628.389 826.14 616.809 845.13 598.219 855.66C579.629 866.19 557.889 866.08 538.609 857.37C541.839 835.9 553.419 816.91 572.009 806.38Z" fill="#96D9C9"/>
<path d="M575.72 881.22C594.31 870.69 616.05 870.8 635.33 879.51C632.1 900.98 620.52 919.97 601.93 930.5C583.34 941.03 561.6 940.92 542.32 932.21C545.55 910.75 557.13 891.75 575.72 881.22Z" fill="#96D9C9"/>
<path d="M572.029 988.34C584.129 981.48 598.279 981.56 610.829 987.23C608.729 1001.2 601.189 1013.56 589.089 1020.42C576.989 1027.28 562.839 1027.2 550.289 1021.53C552.399 1007.56 559.929 995.2 572.029 988.34Z" fill="#96D9C9"/>
<path d="M1898.85 1410.63C1909.78 1412.4 1909.13 1414.18 1910.54 1414.37C1912.2 1414.59 1931.92 1404.69 1931.92 1404.69C1931.92 1404.69 1990.25 1375.9 1993.34 1374.23L2035.44 1321.26L2067.88 1336.22C2067.88 1336.22 2020.53 1392.53 2017.54 1395.01C2014.54 1397.49 1930.91 1426.82 1923.64 1429.64C1923.64 1429.64 1916.31 1436.34 1911.56 1440.39C1906.81 1444.44 1900.47 1446.04 1898.96 1446.96C1898.74 1447.1 1893.5 1449.86 1886.11 1451.47C1879.74 1452.86 1885.05 1448.53 1885.05 1448.53C1885.05 1448.53 1896.32 1443.77 1895.77 1442.91C1895.34 1442.25 1889.35 1445.22 1882.32 1446.83C1880.51 1447.24 1878.73 1447.65 1877.08 1448C1872.76 1448.93 1870.87 1446.46 1875.2 1444.74C1876.73 1444.13 1879.3 1443.19 1881.24 1442.78C1883.33 1442.34 1885.09 1441.25 1886.78 1440.6C1890.14 1439.32 1892.61 1438.43 1892.48 1438.32C1892.31 1438.17 1892.78 1437.43 1890.85 1437.8C1888.52 1438.25 1883.83 1440.35 1880.35 1440.74C1878.38 1440.96 1874.29 1441.69 1874.29 1441.69C1874.29 1441.69 1867.05 1442.38 1867 1441.37C1866.89 1439.15 1871.35 1437.91 1874.08 1437.97C1875.8 1437.09 1880.13 1436.45 1880.13 1436.45C1880.13 1436.45 1888.52 1433.14 1888.04 1431.9C1887.85 1431.4 1882.76 1432.17 1877.37 1432.54C1871.67 1432.93 1867.54 1432.93 1867.24 1431.83C1866.76 1430.08 1871.29 1429.41 1871.29 1429.41C1871.29 1429.41 1875.29 1428.83 1876.6 1428.53C1878.14 1428.18 1882.64 1426.77 1882.64 1426.77C1882.64 1426.77 1898.08 1421.1 1897.52 1419.96C1896.96 1418.82 1894.41 1416.44 1893.32 1416.44C1892.23 1416.45 1890.29 1417.53 1889.2 1417.54C1888.11 1417.55 1885.77 1417.34 1885.61 1415.97C1885.45 1414.6 1891.49 1411.76 1891.49 1411.76C1891.49 1411.76 1895.69 1410.12 1898.85 1410.63Z" fill="#F8A492"/>
<path d="M2006.13 1354.08C2006.13 1354.08 2016.63 1363.62 2021 1366.76C2024.63 1369.37 2042.33 1377.89 2042.33 1377.89C2042.33 1377.89 2059.94 1350.93 2067.64 1337.41C2076.98 1321.01 2083.45 1296.61 2081.24 1295.95C2075.04 1294.09 2066.52 1292.96 2058.65 1296.57C2031.41 1309.08 2006.13 1354.08 2006.13 1354.08Z" fill="#355389"/>
<path d="M1909.05 1424.72C1904.38 1425.46 1899.6 1424.57 1897.53 1420.29C1897.06 1425.37 1904.75 1427.89 1909.05 1424.72Z" fill="#FE875E"/>
<path d="M603.62 1235.6C604.27 1219.9 601.97 1204.39 594.97 1189.78C588.95 1177.2 574.06 1170.07 560.48 1170.05C517.36 1169.99 511.88 1227.21 484.43 1249.28C476.04 1256.02 466.67 1261.52 458.73 1268.79C429.42 1295.64 442.62 1345.36 469.53 1368.9C488.2 1385.24 517.55 1394.52 540.57 1381.75C552.58 1375.08 561.7 1364 568.2 1351.86C577.42 1334.63 583.37 1314.74 589.92 1296.38C596.91 1276.82 602.75 1256.47 603.62 1235.6Z" fill="#13375B"/>
<path d="M610.66 1311.63C597.19 1270.77 579.41 1271.41 579.41 1271.41L593.78 1358.41C602.1 1356.14 612.93 1351.07 621.24 1348.73C618.48 1335.81 613.98 1321.69 610.66 1311.63Z" fill="#F7CC7F"/>
<path d="M678.731 1450.98L629.491 1413.42C629.491 1413.42 624.541 1378.38 617.901 1347.28C609.591 1349.63 602.091 1356.14 593.781 1358.42L606.301 1428.06L670.841 1461.35L689.071 1484.78L693.221 1460.73L678.731 1450.98Z" fill="#F48C7F"/>
<path d="M1127.58 1392.31C1142.87 1392.31 1157.22 1396.34 1169.62 1403.39C1171.19 1404.28 1172.89 1405.1 1174.7 1405.84C1212.54 1421.38 1253.94 1392.6 1253.94 1351.69V1150.52H1052.77C1011.86 1150.52 983.08 1109.12 998.62 1071.28C999.36 1069.47 1000.18 1067.77 1001.07 1066.2C1008.12 1053.79 1012.15 1039.45 1012.15 1024.16C1012.15 975.71 971.75 936.69 922.8 938.96C878.5 941.01 842.83 977.4 841.59 1021.73C841.15 1037.5 844.99 1052.33 852.04 1065.15C852.92 1066.75 853.72 1068.48 854.46 1070.32C869.88 1108.78 840.63 1150.53 799.2 1150.53H599.76V1608.92C599.76 1717.05 687.42 1804.71 795.55 1804.71H1253.94V1604.21C1253.94 1563.1 1212.4 1534.14 1174.33 1549.63C1172.51 1550.37 1170.8 1551.18 1169.23 1552.06C1155.67 1559.67 1139.81 1563.69 1122.95 1562.79C1079.52 1560.49 1044.43 1525.2 1042.38 1481.75C1040.07 1432.75 1079.1 1392.31 1127.58 1392.31Z" fill="#F47458"/>
<path d="M1563.59 1280.72C1564.3 1265.45 1569 1251.3 1576.62 1239.24C1577.58 1237.72 1578.48 1236.05 1579.3 1234.28C1596.59 1197.21 1569.77 1154.51 1528.91 1152.6L1327.95 1143.21L1318.56 1344.16C1316.65 1385.02 1273.95 1411.84 1236.88 1394.55C1235.11 1393.72 1233.44 1392.83 1231.92 1391.87C1219.86 1384.25 1205.72 1379.56 1190.44 1378.84C1142.04 1376.58 1101.18 1415.11 1101.16 1464.11C1101.14 1508.45 1135.82 1545.79 1180.04 1549.09C1195.77 1550.27 1210.76 1547.12 1223.9 1540.68C1225.54 1539.88 1227.3 1539.15 1229.18 1538.5C1268.31 1524.9 1308.66 1556.06 1306.72 1597.44L1297.41 1796.66L1755.3 1818.07C1863.31 1823.12 1954.97 1739.65 1960.02 1631.64L1981.43 1173.75L1781.14 1164.39C1740.08 1162.47 1709.21 1202.61 1722.9 1241.37C1723.55 1243.22 1724.28 1244.97 1725.09 1246.58C1732.06 1260.48 1735.33 1276.51 1733.65 1293.31C1729.33 1336.59 1692.43 1369.99 1648.94 1370.01C1599.9 1370.02 1561.32 1329.14 1563.59 1280.72Z" fill="#9DACCB"/>
<path d="M1003.64 964.311C1004.41 979.581 1001.11 994.111 994.691 1006.85C993.881 1008.46 993.151 1010.2 992.501 1012.05C978.881 1050.62 1009.7 1090.53 1050.56 1088.47L1251.48 1078.37L1241.38 877.451C1239.33 836.601 1279.23 805.771 1317.8 819.391C1319.65 820.041 1321.39 820.771 1323 821.581C1335.74 828.001 1350.27 831.301 1365.54 830.531C1413.93 828.101 1450.87 785.791 1446.15 737.011C1441.88 692.871 1403.74 659.071 1359.41 660.061C1343.64 660.411 1329.02 665.001 1316.57 672.681C1315.02 673.641 1313.33 674.531 1311.53 675.361C1273.9 692.691 1230.72 665.581 1228.64 624.201L1218.62 425.011L760.811 448.031C652.821 453.461 569.671 545.411 575.101 653.401L598.121 1111.21L798.371 1101.14C839.421 1099.08 866.261 1056.14 848.881 1018.89C848.051 1017.11 847.161 1015.44 846.191 1013.92C837.901 1000.76 833.101 985.121 833.151 968.241C833.261 924.751 866.751 887.931 910.041 883.701C958.851 878.941 1001.21 915.891 1003.64 964.311Z" fill="#012B88" fill-opacity="0.29"/>
<path d="M1414.88 853.42C1399.59 853.42 1385.24 849.39 1372.84 842.34C1371.27 841.45 1369.57 840.63 1367.76 839.89C1329.92 824.35 1288.52 853.13 1288.52 894.03V1095.2H1489.69C1530.6 1095.2 1559.38 1136.6 1543.84 1174.44C1543.1 1176.25 1542.28 1177.95 1541.39 1179.52C1534.34 1191.93 1530.31 1206.27 1530.31 1221.56C1530.31 1270.01 1570.71 1309.03 1619.66 1306.76C1663.96 1304.71 1699.63 1268.32 1700.87 1223.99C1701.31 1208.22 1697.46 1193.39 1690.42 1180.57C1689.54 1178.97 1688.74 1177.24 1688 1175.4C1672.58 1136.94 1701.83 1095.19 1743.26 1095.19H1942.7V636.82C1942.7 528.69 1855.04 441.03 1746.91 441.03H1288.52V641.53C1288.52 682.64 1330.06 711.6 1368.13 696.11C1369.95 695.37 1371.66 694.56 1373.23 693.68C1386.79 686.07 1402.65 682.05 1419.51 682.95C1462.94 685.25 1498.03 720.54 1500.08 763.99C1502.39 812.98 1463.35 853.42 1414.88 853.42Z" fill="#F28E02"/>
<path d="M468.83 1741.09C468.83 1741.09 465.79 1762.21 460.57 1769.03C458.82 1771.32 455.61 1774.21 453.51 1778.35C450.24 1784.78 452.05 1794.37 454.46 1799.64C455.7 1802.35 454.37 1802.34 457.2 1803.21C465.56 1805.79 474.45 1801.44 478.01 1793.42C480 1788.94 481.74 1782.96 482.09 1775.42C482.98 1756.24 488.93 1746.49 488.93 1746.49L468.83 1741.09Z" fill="#F7A491"/>
<path d="M560.26 1750.75C560.26 1750.75 562.14 1774.57 560.61 1782.3C559.79 1786.44 555.25 1794.98 557.34 1798.88C559.42 1802.78 561.8 1803.76 561.8 1803.76L615.77 1804.63C618.71 1804.68 616.77 1802.78 614.4 1801.03C610.52 1798.17 607.39 1796.28 594.99 1790.27C594.18 1789.88 591.24 1788 590.18 1787.35C587.49 1785.7 584.79 1783.11 582.46 1780.52C578.58 1776.19 578.25 1755.22 578.25 1755.22L560.26 1750.75Z" fill="#F7A491"/>
<path d="M602.451 1434.19C602.451 1434.19 609.251 1472.86 604.781 1498.21C600.311 1523.56 578.901 1758.53 578.901 1758.53L555.101 1759.88C555.101 1759.88 550.111 1661.73 551.001 1648.08C551.891 1634.43 558.961 1611.59 558.961 1611.59L556.591 1532.34L586.631 1428.23L602.451 1434.19Z" fill="#355389"/>
<path d="M532.49 1426.05C532.49 1426.05 513.75 1454.32 509.28 1477.72C504.82 1501.12 512.56 1573.03 503.97 1603.7C499.32 1620.3 481.71 1645.93 479.03 1667.38C476.35 1688.83 465.85 1745.02 465.85 1745.02L489.64 1749.75L544.93 1609.43L588.3 1482.6L599.41 1417.28L532.49 1426.05Z" fill="#466EB6"/>
<path d="M547.66 1265.18C547.66 1265.18 522.84 1263.6 513.03 1274.32C503.21 1285.04 534.81 1369.89 536.59 1383.53C538.37 1397.18 527.49 1433.47 527.49 1433.47C527.49 1433.47 585.78 1445.23 602.45 1434.18C602.45 1434.18 604.24 1336.03 602.45 1326.28C600.67 1316.53 585.79 1276.88 582.22 1272.98C578.65 1269.08 547.66 1265.18 547.66 1265.18Z" fill="#F7CC7F"/>
<path d="M555.92 1231.95C555.92 1231.95 555.79 1232.68 555.56 1233.93C554.45 1239.91 550.19 1259.75 547.31 1265.2C543.83 1271.79 559.22 1292.81 574.03 1290.24C578.44 1289.48 570.3 1270.93 570.7 1268.96C571.45 1265.2 572.46 1260.07 573.5 1254.81C574.09 1251.84 574.68 1248.83 575.24 1246.01C576.82 1237.97 578.12 1231.4 578.12 1231.4L555.92 1231.95Z" fill="#F7A491"/>
<path d="M555.561 1233.92C555.791 1232.67 555.921 1231.94 555.921 1231.94L578.111 1231.39C578.111 1231.39 576.821 1237.96 575.231 1246C574.681 1248.81 574.091 1251.8 573.501 1254.76C570.071 1254.25 566.491 1252.59 562.901 1249.43C558.991 1246 556.421 1241.87 554.871 1237.47C555.161 1236.06 555.391 1234.85 555.561 1233.92Z" fill="#F47458"/>
<path d="M570.861 1181.39C570.861 1181.39 560.401 1180.18 553.841 1188.68C547.281 1197.18 540.221 1223.46 556.501 1237.75C572.791 1252.04 588.881 1235.86 591.271 1218.71C593.661 1201.56 594.591 1180.77 570.861 1181.39Z" fill="#F7A491"/>
<path d="M596.09 1218.46C594.15 1222.25 590.88 1224.34 588.8 1223.14C586.72 1221.94 586.61 1217.89 588.55 1214.11C590.49 1210.32 593.76 1208.22 595.84 1209.42C597.92 1210.63 598.04 1214.67 596.09 1218.46Z" fill="#F7A491"/>
<path d="M572.03 1178.58C572.03 1178.58 558.06 1203.58 548.06 1204.73C538.06 1205.88 536.75 1219.17 536.75 1219.17C536.75 1219.17 540.32 1188.57 550.22 1182.67C560.12 1176.76 572.03 1178.58 572.03 1178.58Z" fill="#13375B"/>
<path d="M479.62 1789.19C466.65 1791.56 458.03 1783.96 453.54 1778.27C450.24 1784.72 448.64 1794.34 451.06 1799.63C453.19 1804.3 459.43 1804.16 464.35 1804.34C469.54 1804.53 473.56 1801.64 476.14 1797.11C477.34 1795 478.58 1792.36 479.62 1789.19Z" fill="#F47458"/>
<path d="M590.18 1787.35C575.91 1791.02 565.35 1788.52 559.45 1786.14C557.93 1790.46 555.91 1795.89 556.98 1799.02C558.29 1802.85 560.16 1803.72 561.8 1803.76C574.84 1804.1 609.56 1804.57 619.5 1804.7C620.89 1804.72 621.65 1803.09 620.76 1802.02C618.3 1799.07 591.24 1788 590.18 1787.35Z" fill="#F47458"/>
<path d="M550.68 1211.01C551.49 1215.45 549.86 1219.52 547.03 1220.1C544.2 1220.68 541.25 1217.56 540.43 1213.12C539.62 1208.68 541.25 1204.61 544.08 1204.03C546.91 1203.44 549.87 1206.57 550.68 1211.01Z" fill="#F7A491"/>
<path d="M567.001 1226.38L579.621 1226.95C579.621 1226.95 579.111 1231.73 573.561 1231.64C566.781 1231.53 567.001 1226.38 567.001 1226.38Z" fill="white"/>
<path d="M1642.96 220.26C1644.53 220.32 1648.84 221.77 1655.13 233.66C1663.17 248.86 1674.92 294.76 1674.92 294.76L1639.84 307.82L1635.33 298.24L1627.91 224.48C1627.92 224.48 1642.53 220.24 1642.96 220.26Z" fill="#DD513A"/>
<path d="M1596.59 213.64C1606.62 213.65 1631.44 216.58 1642.96 220.26C1642.96 220.26 1651.42 292.99 1635.34 348.26C1631.74 360.63 1638.32 399.55 1638.32 399.55L1534.38 398.18C1534.38 398.18 1546.69 304.1 1542.05 288.91C1537.41 273.71 1537.3 220.76 1537.3 220.76C1537.3 220.76 1538.01 220.65 1560.65 216.74C1571.22 214.9 1585.89 213.62 1596.59 213.64Z" fill="#F47458"/>
<path d="M1584.48 534.54C1584.48 534.54 1586.78 561.08 1591.01 568.43C1595.24 575.78 1590.79 588.27 1590.56 589.99C1590.34 591.7 1581.66 594.15 1567.86 592.68C1554.06 591.21 1554.29 588.03 1555.4 582.88C1556.51 577.74 1563.86 571.12 1564.3 566.22C1564.75 561.32 1560.07 543.68 1560.07 543.68L1584.48 534.54Z" fill="#F7A491"/>
<path d="M1626.59 377.64C1626.59 377.64 1698.34 373.66 1714.36 383.36C1730.38 393.06 1702.98 440.69 1702.98 440.69C1702.98 440.69 1653.05 438.39 1555.26 444.03C1532.1 445.37 1530.11 383.65 1534.44 378.54C1538.77 373.43 1626.59 377.64 1626.59 377.64Z" fill="#E0973F"/>
<path d="M1566.15 594.74C1551.94 593.23 1553.7 586.251 1554.85 580.951C1555.57 577.631 1559.64 573.721 1562.07 570.021C1563.34 571.031 1565.41 572.821 1571.57 574.641C1577.98 576.531 1586.76 572.79 1592.35 570.44C1594.35 577.86 1594.44 587.331 1594.25 588.771C1594.03 590.541 1580.35 596.26 1566.15 594.74Z" fill="#DD513A"/>
<path d="M1573.99 428.97C1576.86 450.66 1591.05 558.65 1591.05 558.65L1558.12 562.73C1558.12 562.73 1517.62 421.78 1519.7 400.23C1521.78 378.67 1536.94 376.86 1536.94 376.86C1536.94 376.86 1566.4 371.55 1573.99 428.97Z" fill="#F7CC7F"/>
<path d="M1536.18 228.83C1545.9 225.18 1550.65 312.75 1551.96 348.79C1569.17 350.45 1599.17 348.8 1606.64 348.24C1610.15 347.98 1618.25 345.01 1621.75 344.55C1625.33 344.08 1628.58 343.84 1630.33 344.14C1630.98 344.25 1648.91 351.59 1650.45 353.2C1652.35 355.2 1657.5 360.23 1656.63 362.4C1655.76 364.58 1646.74 356.34 1646.74 356.34L1642.33 353.86C1647.82 359.22 1658.3 366.29 1656.79 368.86C1655.32 371.37 1645.87 364.2 1639.14 359.31C1644.92 364.53 1652.09 373.86 1650.44 375.32C1648.95 376.63 1640.79 365.82 1632.07 362.71C1628.84 361.56 1625.61 364.75 1623.07 365.14C1621.2 365.42 1618.32 366.03 1616.48 365.51L1607.03 362.83C1603.81 363.12 1603.73 365.02 1600.48 365.72C1596.71 366.52 1590.52 367.37 1585.72 368.54C1558.06 375.3 1548.83 378.44 1540.36 378.43C1514.7 378.42 1513.21 237.45 1536.18 228.83Z" fill="#F7A491"/>
<path d="M1517.73 311.04C1515.91 274.12 1516.18 228.62 1536.87 220.86C1545.04 217.8 1559.43 236.21 1556.84 311.79C1545.8 312.7 1529.58 313.44 1517.73 311.04Z" fill="#DD513A"/>
<path d="M1680.79 557.24C1680.79 557.24 1677.92 566.45 1683.06 572.55C1688.21 578.64 1709.59 584.62 1712.39 587.92C1715.2 591.22 1714.98 594.03 1714.98 594.03L1654.97 592.38L1655.62 574.26L1658.38 561.24L1680.79 557.24Z" fill="#F7A491"/>
<path d="M1686.79 575.59C1686.79 575.59 1671.37 581.83 1663.92 578.13C1656.47 574.44 1656.7 573.41 1654.54 574.79C1652.38 576.17 1651.61 593.16 1651.61 593.16L1719.09 595.14C1723.79 595.03 1726.16 591.57 1722.34 588.61C1719.72 586.58 1716.7 585.22 1714.98 584.24C1709.71 581.21 1686.79 575.59 1686.79 575.59Z" fill="#DD513A"/>
<path d="M1678.51 394.65C1683.15 384.89 1693.7 372.18 1712.26 379.84C1729.96 387.14 1734.71 405.08 1729.13 423.45C1723.55 441.82 1686.78 549.82 1685.5 564.67L1656.14 564.86C1656.14 564.86 1661.47 479.35 1662.78 458.68C1664.04 438.78 1670.48 411.54 1678.51 394.65Z" fill="#F7CC7F"/>
<path d="M1726.17 295.18H1628.04C1625.44 295.18 1623.11 296.75 1622.12 299.16L1591.9 373.11H1537.8C1536.29 373.11 1535.06 374.34 1535.06 375.86C1535.06 377.38 1536.29 378.61 1537.8 378.61H1691.78C1696.01 378.61 1699.85 376.12 1701.59 372.24L1732.02 304.23C1733.91 299.98 1730.81 295.18 1726.17 295.18Z" fill="black"/>
<path d="M1673.33 338.24C1672.67 341.56 1669.78 343.78 1666.88 343.2C1663.98 342.62 1662.17 339.45 1662.83 336.13C1663.49 332.81 1666.38 330.59 1669.28 331.17C1672.18 331.75 1674 334.92 1673.33 338.24Z" fill="white"/>
<path d="M1619.92 124.81C1616.96 123.81 1614.05 122.69 1611.24 121.33C1608.06 119.8 1603.94 118 1601.34 117.6C1595.86 116.75 1586.46 117.32 1581.26 122.95C1574.79 129.97 1563.29 124.22 1565.6 160.99C1568.22 202.62 1591.37 198.05 1591.93 197.34C1592.49 196.63 1612.57 170.71 1612.57 170.71C1612.57 170.71 1619.59 186.07 1619.59 185.5C1619.59 184.97 1655.44 136.77 1619.92 124.81Z" fill="#0E2E35"/>
<path d="M1602.34 200.43L1604.34 215.3C1604.34 215.3 1608.82 236.73 1603.06 240.86C1597.3 244.99 1578.57 214.69 1578.57 214.69L1580.55 177L1602.34 200.43Z" fill="#F7A491"/>
<path d="M1579.91 189.22C1584.67 202.08 1596 209.98 1604.04 213.04L1602.35 200.43L1580.55 177L1579.91 189.22Z" fill="#F47458"/>
<path d="M1601.16 135.99C1613.36 134.02 1624.31 143.83 1624 156.05C1623.87 161.36 1623.43 167.99 1622.33 175.13C1619.68 192.3 1607.96 207.42 1600.22 206.07C1592.48 204.72 1572.98 189.91 1576.42 165.47C1578.53 150.38 1588.36 138.05 1601.16 135.99Z" fill="#F7A491"/>
<path d="M1581.79 168.38C1581.14 172.16 1578.11 174.78 1575.04 174.25C1571.96 173.71 1570 170.22 1570.65 166.44C1571.3 162.66 1574.33 160.04 1577.4 160.57C1580.48 161.11 1582.44 164.61 1581.79 168.38Z" fill="#F7A491"/>
<path d="M1577.4 160.57C1577.4 160.57 1586.77 162.9 1590.24 156.87C1593.72 150.85 1606.14 137.85 1621.94 143.24C1637.74 148.63 1608.04 130.14 1606.77 130.14C1605.51 130.14 1590.34 130.03 1590.34 130.03C1590.34 130.03 1578.65 139.65 1578.23 140.7C1577.81 141.76 1574.44 153.28 1574.44 153.28L1577.4 160.57Z" fill="#0E2E35"/>
<path d="M1594.54 185.71L1611.58 188.97C1611.58 188.97 1609.95 195.39 1602.42 194.17C1593.23 192.69 1594.54 185.71 1594.54 185.71Z" fill="white"/>
<path d="M1306.27 1372.18C1306.92 1374.43 1307.3 1375.17 1308.12 1376.68C1313.46 1386.41 1325.86 1400.29 1325.86 1400.29L1335.45 1378.68C1335.45 1378.68 1333.89 1371.89 1331.17 1362.2C1321.92 1364.61 1313.09 1366.01 1306.27 1372.18Z" fill="#F8A492"/>
<path d="M1361.26 1353.44C1361.26 1353.44 1307.76 1376.48 1306.03 1376.04C1304.92 1375.76 1284.09 1340.89 1283.86 1308.11C1283.76 1292.97 1299.48 1274.75 1317.03 1278.35C1325.86 1280.16 1325.73 1282.62 1338.8 1301.61C1351.87 1320.6 1361.26 1353.44 1361.26 1353.44Z" fill="#13375B"/>
<path d="M1406.92 1766.47C1406.92 1766.47 1405.65 1787.48 1405.64 1787.52C1405.17 1790.19 1403.34 1796.78 1403.34 1799.2C1403.34 1808.31 1446.6 1791.47 1436.9 1787.43C1436.02 1787.06 1431.42 1784.3 1431.14 1781.2C1430.7 1776.42 1429.57 1766.76 1429.57 1766.76L1406.92 1766.47Z" fill="#F7A491"/>
<path d="M1436.8 1787.35C1436.8 1787.35 1426.64 1790.14 1421.44 1790.83C1416.24 1791.53 1409.38 1785.66 1405.7 1787.25C1401.65 1788.99 1401.81 1804.69 1401.81 1804.69C1401.81 1804.69 1456.27 1809.16 1471.59 1804.54C1477.66 1802.7 1457.56 1793.84 1436.8 1787.35Z" fill="#DD513A"/>
<path d="M1318.43 1766.47C1318.43 1766.47 1317.16 1787.48 1317.15 1787.52C1316.68 1790.19 1314.85 1796.78 1314.85 1799.2C1314.85 1808.31 1358.11 1791.47 1348.41 1787.43C1347.53 1787.06 1341.57 1782.24 1341.28 1779.14C1340.84 1774.36 1341.07 1766.76 1341.07 1766.76L1318.43 1766.47Z" fill="#F7A491"/>
<path d="M1348.31 1787.35C1348.31 1787.35 1338.15 1790.14 1332.95 1790.83C1327.75 1791.53 1320.89 1785.66 1317.21 1787.25C1313.16 1788.99 1313 1804.69 1313 1804.69C1313 1804.69 1367.71 1809.9 1383.1 1804.54C1389.07 1802.45 1369.07 1793.84 1348.31 1787.35Z" fill="#DD513A"/>
<path d="M1331.65 1383.83L1369.75 1330.46C1369.91 1329.99 1370.26 1329.04 1370.79 1327.58C1372.71 1322.28 1376.7 1311.26 1380.18 1300.3L1380.22 1300.18C1381.31 1296.35 1383.63 1289.66 1385.87 1283.2C1388.36 1276.01 1391.45 1267.09 1391.56 1265.57C1391.46 1265.31 1391.28 1264.84 1391.05 1264.22C1389.65 1260.59 1387.76 1251.96 1387.1 1248.2C1386.68 1245.81 1386.25 1240 1389.09 1240C1393.56 1240 1391.43 1245.8 1393.49 1249.43C1394.25 1247.01 1395.78 1242.2 1396.59 1237.34L1397.34 1225.99C1397.48 1225.13 1396.57 1218.87 1399.71 1218.87H1399.86C1402.68 1219.08 1402.61 1225.73 1403.78 1236.99C1404.15 1235.7 1404.52 1234.13 1404.8 1232.7C1404.77 1231.93 1405.33 1228.55 1405.75 1226.76C1405.18 1223.62 1405.51 1218.68 1408.85 1219.14C1410.52 1219.37 1410.39 1226.28 1410.39 1226.28C1410.37 1227.23 1410.27 1234.53 1410.33 1235.97C1410.67 1233.52 1412.01 1223.07 1414.63 1223.07C1416.8 1223.07 1416.98 1225.88 1416.93 1228.11C1416.9 1229.43 1415.54 1240.74 1415.46 1242.06C1416.48 1240.34 1417.7 1230.37 1418.71 1230.37C1422.95 1230.37 1421.42 1244.55 1419.86 1248.25C1419.71 1248.63 1419.56 1249.37 1419.38 1250.23C1418.85 1252.76 1417.96 1256.98 1415.75 1260.78C1413.09 1265.33 1409.42 1272.57 1408.86 1273.68C1408.45 1275.94 1407.18 1284.07 1405.57 1294.3C1404.88 1298.68 1404.13 1303.47 1403.35 1308.44L1403.31 1308.43C1403.17 1309.51 1402.37 1312.93 1399.36 1325.76C1395.24 1343.32 1394.81 1344.08 1394.62 1344.4C1392.83 1347.57 1351.75 1403.36 1350 1405.73L1348.97 1407.13L1331.65 1383.83Z" fill="#F7A491"/>
<path d="M1402.51 1259.35C1402.51 1259.35 1399.42 1251.44 1393.91 1251.43C1393.91 1251.43 1396.99 1250.32 1399.62 1252.41C1402.25 1254.5 1402.51 1259.35 1402.51 1259.35Z" fill="#F47458"/>
<path d="M1322.45 1244.07L1317.55 1275.09C1317.55 1275.09 1336.24 1290.1 1347.13 1286.93C1356.27 1284.27 1350 1272.32 1350 1272.32C1350 1272.32 1345.13 1255.76 1346.62 1247.08C1348.11 1238.4 1322.45 1244.07 1322.45 1244.07Z" fill="#F7A491"/>
<path d="M1325.97 1253.44C1330.65 1255.65 1339.91 1258.67 1347.12 1259.4C1346.43 1255.06 1346.04 1250.47 1346.62 1247.08C1347.31 1243.08 1342.21 1242.13 1336.53 1242.27C1329.09 1242.91 1322.45 1244.07 1322.45 1244.07L1321.51 1250.03C1322.92 1251.52 1324.41 1252.71 1325.97 1253.44Z" fill="#FE875E"/>
<path d="M1298.86 1208.29C1298.09 1208.29 1306.25 1242.94 1318.87 1248.9C1331.49 1254.86 1350.33 1251.75 1353.86 1242.42C1357.77 1232.1 1343.51 1196.75 1325.75 1192.26C1308 1187.77 1298.86 1208.29 1298.86 1208.29Z" fill="#F7A491"/>
<path d="M1313.47 1176.45C1303.39 1182.27 1298.76 1190.89 1297.2 1194.43C1292.47 1196.68 1286.74 1201.53 1283.99 1214.63C1280.61 1230.72 1292.63 1243.13 1305.37 1246.86C1318.11 1250.59 1320.08 1259.02 1320.08 1259.02L1321.53 1249.95C1321.53 1249.95 1318.7 1242.05 1314.43 1238.1C1310.17 1234.15 1316.45 1228.38 1317 1223.68C1317.43 1220.06 1314.76 1213.03 1315.34 1207.09C1315.34 1207.09 1322.42 1196.36 1329.4 1193.71C1341.3 1189.19 1326.41 1168.99 1313.47 1176.45Z" fill="#13375B"/>
<path d="M1318.84 1229.71C1320.49 1233.71 1319.82 1237.69 1317.33 1238.59C1314.85 1239.49 1311.5 1236.97 1309.85 1232.97C1308.2 1228.97 1308.87 1224.99 1311.36 1224.1C1313.84 1223.19 1317.19 1225.71 1318.84 1229.71Z" fill="#F7A491"/>
<path d="M1365.87 1384.68L1439.36 1372.7C1439.36 1372.7 1431 1351.65 1428.01 1351.65C1425.02 1351.65 1372.44 1374.6 1372.44 1374.6L1368.26 1383L1365.87 1384.68Z" fill="#F8A492"/>
<path d="M1328.23 1435.07C1328.23 1435.07 1320.9 1470.51 1323.89 1497.39C1326.88 1524.26 1327.11 1619.73 1327.11 1619.73L1315.71 1772.47L1342.76 1773.06C1342.76 1773.06 1374.84 1620.39 1374.24 1624.31C1373.64 1628.23 1384.99 1516.82 1384.99 1516.82L1346.75 1431.72L1328.23 1435.07Z" fill="#184655"/>
<path d="M1335.4 1433.39C1335.4 1433.39 1330.62 1465.3 1336.6 1479.3C1342.57 1493.3 1387.85 1630.63 1388.45 1641.82C1389.05 1653.01 1404.1 1776.78 1404.1 1776.78L1435.55 1775.9L1442.35 1638.3L1428.1 1465.36L1414.27 1421.64L1335.4 1433.39Z" fill="#13375B"/>
<path d="M1317.54 1275.08C1317.54 1275.08 1325.3 1280.17 1332.53 1279.58C1339.76 1278.99 1349.99 1272.32 1349.99 1272.32L1348.57 1267.5C1348.57 1267.5 1329.86 1264.77 1329.38 1265.07C1328.92 1265.36 1317.54 1275.08 1317.54 1275.08Z" fill="#F7A491"/>
<path d="M1400.21 1350.61C1400.21 1350.61 1428.01 1376.84 1440.56 1372.36C1453.11 1367.88 1458.3 1352.57 1427.68 1330.17C1400.28 1310.13 1400.21 1350.61 1400.21 1350.61Z" fill="#F8A492"/>
<path d="M1419.05 1383C1414.92 1360.53 1384.99 1290.62 1382.6 1277.75C1381.44 1271.49 1365.29 1271.35 1349.92 1272.17C1333.68 1273.03 1317.54 1275.09 1317.54 1275.09C1317.54 1275.09 1303.16 1277.45 1296.84 1283.38C1290.52 1289.31 1288.83 1305.7 1297.93 1336.82C1305.11 1361.38 1314.01 1374.87 1318.41 1392.77C1319.3 1398.77 1320.07 1404.69 1321.08 1411.61C1322.7 1438.36 1321.06 1473.71 1321.06 1473.71C1321.06 1473.71 1399.33 1489.95 1428.61 1465.31C1428.61 1465.3 1423.28 1406.02 1419.05 1383Z" fill="#355389"/>
<path d="M1439 1334.7C1439 1334.7 1408.29 1360.05 1406.5 1360.05C1405.35 1360.05 1362.67 1328.66 1352.82 1302.87C1347.37 1288.61 1358.8 1272.66 1371.84 1272.71C1380.88 1272.75 1384.9 1275.08 1402.83 1290.19C1420.76 1305.3 1439 1334.7 1439 1334.7Z" fill="#466EB6"/>
<path d="M898.721 203.031C903.751 190.921 908.871 178.781 921.931 172.651C932.501 167.691 943.541 169.551 952.931 176.621C979.541 196.631 956.351 218.671 986.641 256.611C996.051 268.401 1007.44 277.921 1013.08 291.731C1020.97 311.071 1011.57 320.351 996.511 329.611C924.421 373.921 886.631 282.941 887.991 262.131C888.991 246.651 895.481 210.831 898.721 203.031Z" fill="#13375B"/>
<path d="M823.9 438.85C826.94 438.37 834.32 433.08 836.93 432.6C838.95 432.23 843.32 431.57 845.18 431.29C847.46 422.78 859.04 376.36 860.34 362.75C861.75 348.01 872.17 284.24 872.17 284.24L899.16 289.15C899.16 289.15 887.95 338.21 884.85 361.99C882.19 382.42 859.77 428.36 856.92 433.21C856.92 433.33 856.92 433.44 856.91 433.56C856.48 440.77 853 438.37 853 438.37L847.35 439.81C847.35 439.81 827.38 441.73 826.07 442.21C824.77 442.69 820.86 439.33 823.9 438.85Z" fill="#F7A491"/>
<path d="M895.7 246.971C876.62 253.441 865.77 305.311 865.77 305.311C865.77 305.311 895.71 313.671 903.38 309.281C903.38 309.281 912.09 270.691 915.21 272.041L895.7 246.971Z" fill="#6A97CE"/>
<path d="M748.1 528.471C742.26 543.871 739.23 558.701 738.96 560.491C738.83 561.351 740.05 565.541 739.93 566.431C728.21 582.421 711.37 585.911 696.93 586.931C704.29 579.751 715.09 572.941 715.61 570.671C716.44 567.051 720.88 550.921 723.07 528.581C732.06 532.741 738.15 529.441 748.1 528.471Z" fill="#F7A491"/>
<path d="M914.161 356.21L939.951 428.83C939.951 428.83 898.511 436.63 883.021 439.47C867.531 442.31 780.971 446.09 778.781 447.63C777.151 448.77 759.271 506.6 751.291 538.49C742.231 540.48 726.721 538.09 718.471 535.25C722.931 489.62 739.031 417.34 744.191 409.47C752.571 396.66 914.161 356.21 914.161 356.21Z" fill="#F28E02"/>
<path d="M813.431 560.311C810.581 576.531 810.381 591.671 810.451 593.481C810.481 594.351 812.461 598.231 812.521 599.141C804.001 617.041 788.111 623.631 774.121 627.341C780.001 618.911 789.341 610.191 789.421 607.861C789.551 604.151 790.901 587.481 788.861 565.111C798.461 567.501 803.831 563.131 813.431 560.311Z" fill="#F7A491"/>
<path d="M944.261 359.98L954.261 377.06C969.491 403.07 957.811 436.53 929.721 447.43C929.571 447.49 929.421 447.55 929.271 447.6C914.591 453.29 830.271 473.23 828.411 475.15C827.021 476.58 820.301 536.73 818.431 569.55C809.901 573.21 794.221 573.76 785.581 572.51C781.411 526.86 783.681 452.84 787.271 444.14C793.121 429.99 944.261 359.98 944.261 359.98Z" fill="#DA7F00"/>
<path d="M809.159 593.98C811.399 591.5 819.65 605.15 821.71 608.06C824.03 611.33 823.37 613.8 823.09 614.32C822.36 615.67 778.9 641.24 768.3 643.06C767.3 643.23 765.56 642.6 765.13 642.21C760.99 638.54 780.05 611.47 788.62 607.91C794.14 605.61 799.059 605.13 809.159 593.98Z" fill="#13375B"/>
<path d="M737.581 560.981C740.251 558.961 745.791 573.911 747.271 577.161C748.931 580.811 747.821 583.111 747.451 583.561C746.481 584.751 699.001 601.721 688.241 601.521C687.221 601.501 685.641 600.551 685.281 600.091C681.901 595.711 705.701 572.691 714.781 570.801C720.641 569.591 725.561 570.051 737.581 560.981Z" fill="#13375B"/>
<path d="M913.79 246.821C913.3 246.821 912.59 246.651 911.87 246.421C908.33 245.791 900.58 244.86 894.55 247.4C887.22 250.49 875.86 279.4 876.53 309.06C876.8 313.6 877.08 317.66 877.31 320.49C879.16 342.9 885.59 384.951 885.94 385.171C894.69 390.801 947.46 368.97 951.08 364.18C954.71 359.39 956.85 301.141 958.61 298.231L962.08 247.571C955.96 245.761 923.17 246.751 913.79 246.821Z" fill="#9BC1F9"/>
<path d="M935.18 228.16C935.18 228.16 931.78 245.73 932.46 252.67C933.14 259.6 929.87 281.94 915.2 282.02C900.53 282.09 912.41 253.62 913.8 246.82C915.18 240.03 915.51 219 915.51 219L935.18 228.16Z" fill="#F7A491"/>
<path d="M915.201 229.55C915.431 223.8 915.501 219 915.501 219L935.181 228.17C935.181 228.17 934.491 231.76 933.791 236.34C925.171 238.06 918.931 234.88 915.201 229.55Z" fill="#F47458"/>
<path d="M942.37 179.661C942.37 179.661 949.95 183.871 952.72 192.981C955.49 202.101 952.34 225.621 932.75 231.301C913.16 236.981 904.68 218.351 908.71 203.781C912.75 189.221 921.53 170.781 942.37 179.661Z" fill="#F7A491"/>
<path d="M906.271 198.14C906.651 202.05 908.811 205.04 911.091 204.82C913.371 204.6 914.901 201.24 914.521 197.33C914.141 193.42 911.981 190.43 909.701 190.65C907.421 190.88 905.881 194.23 906.271 198.14Z" fill="#F7A491"/>
<path d="M940.07 178.471C940.07 178.471 943.62 204.711 952.11 209.451C960.59 214.191 957.04 225.831 957.04 225.831C957.04 225.831 964.74 198.801 958.03 190.121C951.32 181.431 940.07 178.471 940.07 178.471Z" fill="#13375B"/>
<path d="M947.08 213.22C944.78 216.64 944.79 220.67 947.1 222.23C949.41 223.79 953.15 222.27 955.45 218.85C957.75 215.43 957.74 211.4 955.43 209.84C953.12 208.29 949.38 209.8 947.08 213.22Z" fill="#F7A491"/>
<path d="M918.551 214.681L932.351 218.151C932.351 218.151 930.691 223.391 924.581 222.041C917.121 220.401 918.551 214.681 918.551 214.681Z" fill="white"/>
<path d="M987.08 436.66C987.74 436.63 1046.59 433.67 1046.59 433.67C1046.59 433.67 1022.17 451.22 1021.67 451.22C1021.17 451.22 1002.22 443.74 1001.39 443.74C1000.56 443.74 987.08 436.66 987.08 436.66Z" fill="#50BFA5"/>
<path d="M2178.53 1767.33C2178.53 1767.33 2179.69 1787.97 2179.7 1788.01C2180.13 1790.63 2181.81 1797.11 2181.81 1799.49C2181.81 1808.44 2142.1 1791.89 2151 1787.93C2151.81 1787.57 2156.03 1784.86 2156.29 1781.81C2156.7 1777.12 2157.73 1767.62 2157.73 1767.62L2178.53 1767.33Z" fill="#F7A491"/>
<path d="M2150.63 1788.02C2150.63 1788.02 2159.95 1790.76 2164.73 1791.44C2169.51 1792.12 2175.8 1786.36 2179.18 1787.92C2182.9 1789.63 2182.75 1805.06 2182.75 1805.06C2182.75 1805.06 2132.76 1809.45 2118.7 1804.91C2113.12 1803.1 2131.57 1794.39 2150.63 1788.02Z" fill="#F7CC7F"/>
<path d="M2244.65 1766.26C2244.65 1766.26 2245.82 1786.9 2245.82 1786.94C2246.25 1789.56 2247.94 1796.04 2247.94 1798.42C2247.94 1807.37 2208.23 1790.82 2217.13 1786.86C2217.93 1786.5 2223.41 1781.76 2223.67 1778.71C2224.08 1774.02 2223.86 1766.55 2223.86 1766.55L2244.65 1766.26Z" fill="#F7A491"/>
<path d="M2217.23 1786.77C2217.23 1786.77 2226.55 1789.51 2231.33 1790.19C2236.1 1790.87 2242.4 1785.11 2245.78 1786.67C2249.5 1788.38 2249.65 1803.81 2249.65 1803.81C2249.65 1803.81 2200.01 1805.85 2185.3 1803.66C2179.51 1802.8 2198.17 1793.15 2217.23 1786.77Z" fill="#F7CC7F"/>
<path d="M2232.88 1438.4C2232.88 1438.4 2239.61 1473.22 2236.87 1499.62C2234.13 1526.02 2233.91 1619.81 2233.91 1619.81L2246.56 1769.82L2219.54 1770.45C2219.54 1770.45 2190.1 1620.46 2190.64 1624.31C2191.19 1628.16 2180.77 1518.7 2180.77 1518.7L2215.87 1435.09L2232.88 1438.4Z" fill="#355389"/>
<path d="M2223.46 1415.92C2223.46 1415.92 2253.95 1448.03 2242.61 1483.1C2238.06 1497.19 2195.57 1631.78 2195.02 1642.78C2194.47 1653.78 2180.65 1775.37 2180.65 1775.37L2151.78 1774.5L2145.53 1639.31L2153.78 1457.16L2171.31 1426.44L2223.46 1415.92Z" fill="#466EB6"/>
<path d="M2038.37 1311.4C2048.35 1300.26 2070.08 1284.41 2070.08 1284.41C2070.08 1284.41 2083.02 1273.35 2088.3 1271.53C2096.07 1268.85 2109.37 1261.71 2128.61 1290.87C2142.38 1311.74 2229.26 1419.79 2243.53 1423.43L2150.39 1467.99C2147.84 1446.71 2101.81 1406.5 2095.18 1399C2080.38 1382.24 2028.92 1321.95 2038.37 1311.4Z" fill="#F28E02"/>
<path d="M2042.72 1266.13L2071.73 1283.12C2071.73 1283.12 2072.55 1307.89 2063.06 1314.32C2055.1 1319.72 2049.05 1306.76 2049.05 1306.76C2049.05 1306.76 2038.26 1291.81 2030.07 1287.15C2021.87 1282.49 2042.72 1266.13 2042.72 1266.13Z" fill="#F7A491"/>
<path d="M2047.58 1277.03C2046.49 1282.2 2043.96 1289.67 2040.05 1295.82C2036.85 1292.36 2033.26 1288.97 2030.06 1287.15C2026.28 1285 2028.68 1280.36 2032.37 1275.98C2037.58 1270.56 2042.71 1266.13 2042.71 1266.13L2048.29 1269.39C2048.65 1271.51 2047.95 1275.31 2047.58 1277.03Z" fill="#F47458"/>
<path d="M2027.6 1223.56C2028.09 1222.96 2051.94 1252.64 2049 1266.57C2046.06 1280.5 2031.64 1293.2 2021.62 1289.71C2010.54 1285.85 1989.93 1250.9 1997.32 1233.93C2004.71 1216.96 2027.6 1223.56 2027.6 1223.56Z" fill="#F7A491"/>
<path d="M2001.49 1214.2C2011.89 1208.42 2028.85 1206.76 2041.52 1213.39C2057.1 1221.55 2060.65 1242.07 2055.77 1254.59C2050.89 1267.11 2056.48 1274.19 2056.48 1274.19L2048.22 1269.36C2048.22 1269.36 2043.39 1261.82 2042.76 1255.82C2042.13 1249.81 2033.37 1250.88 2029.09 1248.15C2025.8 1246.05 2021.59 1239.24 2016.27 1235.7C2016.27 1235.7 2002.85 1234.05 1996.26 1237.76C1985 1244.07 1986.6 1222.48 2001.49 1214.2Z" fill="#13375B"/>
<path d="M2035.79 1253.16C2035.71 1257.61 2037.82 1261.26 2040.49 1261.3C2043.16 1261.34 2045.39 1257.77 2045.47 1253.32C2045.55 1248.87 2043.44 1245.22 2040.77 1245.18C2038.1 1245.14 2035.87 1248.7 2035.79 1253.16Z" fill="#F7A491"/>
<path d="M2011.36 1276.79L2023.99 1267.35C2023.99 1267.35 2027.33 1272.45 2021.9 1276.77C2015.27 1282.03 2011.36 1276.79 2011.36 1276.79Z" fill="white"/>
<path d="M1979.65 1464.61C1982.81 1459.99 1984.19 1453.32 1988.57 1448.23C1990.04 1446.52 1992.38 1444.6 1995.04 1442.68C2016.08 1430.37 2070.88 1398.64 2073.01 1396.18C2075.54 1393.26 2112.94 1331.12 2112.94 1331.12L2079.35 1323.51L2046.52 1381.48C2043.78 1383.66 1991.67 1422.17 1991.67 1422.17C1991.67 1422.17 1981.31 1430.27 1975.64 1434.06C1972.78 1435.73 1970 1436.81 1967.57 1437.66C1964.51 1438.72 1958.69 1441.63 1957.51 1442.66C1956.14 1443.87 1953.4 1446.44 1951.77 1448.01C1950.14 1449.58 1948.17 1451.36 1947.4 1452.29C1946.94 1452.86 1945.5 1453.64 1944.44 1454.17C1942.86 1454.96 1943.07 1457.29 1944.76 1457.77C1946.36 1458.22 1948.51 1457.22 1949.85 1456.59C1953.62 1454.82 1958.23 1450.03 1958.48 1450.62C1958.73 1451.21 1954.04 1461.46 1953.58 1462.67C1953.12 1463.88 1947.75 1475.83 1947.47 1478.49C1947.19 1481.15 1948.8 1481.77 1949.99 1480.79C1951.02 1479.95 1959.66 1464 1959.66 1464C1959.66 1464 1960.77 1461.97 1961.2 1463.13C1961.63 1464.29 1953.81 1478.8 1953.05 1481.18C1952.29 1483.56 1952.89 1485.51 1955.1 1484.68C1957.78 1483.67 1965.17 1467.67 1965.17 1467.67C1965.17 1467.67 1966.13 1465.68 1966.79 1466.37C1967.45 1467.06 1960.59 1479.29 1960.51 1480.7C1960.43 1482.11 1961.71 1483.5 1963.56 1482.32C1965.74 1480.93 1972.22 1466.6 1972.22 1466.6C1972.22 1466.6 1973.02 1465.65 1973.27 1466.32C1973.52 1466.99 1968.42 1477.83 1968.8 1479.41C1969.12 1480.74 1970.32 1480.47 1970.32 1480.47C1972.98 1480.46 1976.49 1469.23 1979.65 1464.61Z" fill="#F8A492"/>
<path d="M2103.73 1363.95C2103.73 1363.95 2092.79 1360.47 2085.77 1357.26C2081.07 1355.11 2060.57 1344.91 2060.57 1344.91C2060.57 1344.91 2069.41 1307.63 2075.38 1294.22C2097.31 1245.02 2122.22 1278.95 2125.6 1286.86C2133.18 1304.54 2103.73 1363.95 2103.73 1363.95Z" fill="#355389"/>
<path d="M1339.61 1235.13L1350.02 1227.35C1350.02 1227.35 1352.77 1231.56 1348.29 1235.11C1342.84 1239.45 1339.61 1235.13 1339.61 1235.13Z" fill="white"/>
<path d="M2561.76 1803.95H143.07C140.05 1803.95 137.59 1807.08 137.59 1810.94C137.59 1814.8 140.04 1817.93 143.07 1817.93H2561.76C2564.78 1817.93 2567.23 1814.8 2567.23 1810.94C2567.23 1807.08 2564.78 1803.95 2561.76 1803.95Z" fill="#023296"/>
<path d="M1047.94 433.61C1047.69 432.98 1047.14 432.97 1046.58 432.95C1041.12 432.78 1035.66 432.54 1030.25 431.73C1029.35 431.6 1028.46 431.39 1027.63 431.06C1026.12 430.46 1024.64 430.47 1023.11 430.89C1022.29 431.12 1021.45 431.16 1020.6 431.16C1017.85 431.15 1010.02 428.48 1005.99 427.78C1005.07 427.62 1004.34 426.92 1004.11 426.02C1000.15 410.36 991.66 375.22 990.56 363.67C989.15 348.9 978.95 282.28 978.95 282.28L951.65 289.89C951.65 289.89 962.89 339.06 965.99 362.9C968.39 381.31 986.79 420.38 992.56 431.61C995.38 439.97 1001.7 440.2 1003.17 440.38C1004.01 440.48 1004.78 440.9 1005.33 441.54C1006.33 442.7 1007.47 443.71 1008.77 444.54C1009.74 445.15 1010.48 445.95 1011.12 446.88C1012.28 448.57 1013.32 450.34 1014.34 452.12C1015.02 453.3 1015.73 453.67 1016.74 453.39C1017.82 453.09 1018.34 452.29 1018.32 450.97C1018.29 449.02 1017.67 447.26 1016.69 445.59C1015.77 444.03 1015.84 443.13 1016.91 441.69C1017.52 440.87 1018.16 440.07 1018.96 439.41C1019.78 438.74 1020.64 438.24 1021.75 438.39C1023.71 438.88 1025.69 439.28 1027.7 439.5L1029.35 439.84C1029.41 439.85 1030.25 440.03 1030.25 440.03C1030.39 440.07 1033.29 440.38 1034.29 440.39C1035.09 440.39 1036.38 440.44 1037.48 440.5C1038.48 440.55 1040.58 440.03 1040.65 440.03C1041.62 440.01 1042.48 439.66 1043.2 439.01C1043.5 438.74 1043.78 438.45 1043.63 437.99C1043.49 437.57 1043.17 437.4 1042.74 437.32C1042.08 437.2 1038.69 436.79 1038.73 436.65C1039.74 436.65 1042.89 436.58 1043.9 436.55C1045.26 436.51 1046.43 436.03 1047.37 435.02C1047.76 434.64 1048.19 434.24 1047.94 433.61Z" fill="#F7A491"/>
<path d="M962.411 247.47C975.881 245.02 987.001 305.3 987.001 305.3C987.001 305.3 957.061 313.66 949.391 309.27C949.391 309.27 940.681 270.68 937.561 272.03L962.411 247.47Z" fill="#9BC1F9"/>
<path d="M636.63 1331.03C637.52 1328.47 625.1 1326.41 624.43 1323.83C623.77 1321.25 640.12 1321.04 640.7 1318.77C641.78 1314.59 622.78 1317.89 623.15 1315.93C623.52 1313.97 642.95 1309.6 640.85 1306.25C638.75 1302.9 621.18 1312.88 620.65 1310.61C620.12 1308.33 637.82 1302.79 637.51 1297.8C637.34 1295.13 608.45 1311.11 605.1 1309.66C601.75 1308.21 608.7 1295.67 606.04 1293.8C603.37 1291.94 595.72 1319.29 593.87 1320.21C592.03 1321.12 553 1343.4 539.11 1346.94C537.42 1342.29 533.78 1336.01 532.29 1331.61C524.5 1337.16 518.71 1339.94 510.67 1344.99C516.5 1359.59 524.79 1375.58 528.85 1377.41C541.21 1382.99 589.01 1343.35 598.56 1336.56C608.11 1329.77 613.58 1331.97 620.03 1329.83C626.49 1327.69 635.73 1333.58 636.63 1331.03Z" fill="#F7A491"/>
<path d="M509.001 1352C509.001 1352 498.301 1304.75 500.161 1291.04C502.021 1277.33 518.311 1264.56 529.601 1269.3C540.881 1274.04 546.001 1340 546.001 1340L509.001 1352Z" fill="#F7CC7F"/>
</svg>
