<svg width="685" height="459" viewBox="0 0 685 459" fill="none" xmlns="http://www.w3.org/2000/svg">
<path d="M76.8009 381.43C75.9909 381.23 75.1909 381.02 74.3809 380.8" stroke="#A9C6EA" stroke-miterlimit="10"/>
<path d="M71.0204 379.82C55.9704 375.11 41.4004 366.48 31.3204 354.51C-4.16964 312.35 37.4204 258.31 78.8004 241.29C98.9804 232.99 117.16 223.08 123.09 200.07C128.76 178.06 113.23 155.06 109.22 134.05C101.15 91.7696 139.17 59.0596 179.28 59.0596C216.25 59.0596 232.9 73.1496 269.59 97.7296C297.32 116.31 349.4 127.2 389.41 123.28C437.06 118.6 455.02 97.7296 493 80.7396C519.14 69.0496 555.57 66.5496 580.02 83.8796C606.14 102.39 596.21 138.64 599.19 165.71C599.94 172.52 601.71 179.17 605.1 185.16C626.5 222.92 670.33 224.86 670.33 280.77C670.33 321.11 605.97 337.09 571.21 342.34" stroke="#A9C6EA" stroke-miterlimit="10" stroke-dasharray="5 5"/>
<path d="M569.47 342.6C568.63 342.72 567.8 342.84 567 342.95" stroke="#A9C6EA" stroke-miterlimit="10"/>
<path d="M66.8008 170.689H81.0708" stroke="#A9C6EA" stroke-miterlimit="10"/>
<path d="M81.0703 178.619H95.3303" stroke="#A9C6EA" stroke-miterlimit="10"/>
<path d="M502.061 108.38H516.321" stroke="#A9C6EA" stroke-miterlimit="10"/>
<path d="M493 116.319H507.27" stroke="#A9C6EA" stroke-miterlimit="10"/>
<path d="M514.74 112.529H534.12" stroke="#A9C6EA" stroke-miterlimit="10"/>
<path d="M639.131 277.449H649.391" stroke="#A9C6EA" stroke-miterlimit="10"/>
<path d="M629.82 269.609H644.08" stroke="#A9C6EA" stroke-miterlimit="10"/>
<path d="M167.541 69.8799H181.801" stroke="#A9C6EA" stroke-miterlimit="10"/>
<path d="M144.301 241.76H167.761" stroke="#A9C6EA" stroke-miterlimit="10"/>
<path d="M172.711 241.76H184.881" stroke="#A9C6EA" stroke-miterlimit="10"/>
<path d="M446.7 211.85C446.7 214.39 444.64 216.45 442.1 216.45C439.56 216.45 437.5 214.39 437.5 211.85C437.5 209.31 439.56 207.25 442.1 207.25C444.64 207.24 446.7 209.3 446.7 211.85Z" stroke="#A9C6EA" stroke-miterlimit="10"/>
<path d="M627.63 179.99C627.63 182.53 625.57 184.59 623.03 184.59C620.49 184.59 618.43 182.53 618.43 179.99C618.43 177.45 620.49 175.39 623.03 175.39C625.57 175.39 627.63 177.45 627.63 179.99Z" stroke="#A9C6EA" stroke-miterlimit="10"/>
<path d="M456.731 80.7494C456.731 83.2894 454.671 85.3494 452.131 85.3494C449.591 85.3494 447.531 83.2894 447.531 80.7494C447.531 78.2094 449.591 76.1494 452.131 76.1494C454.671 76.1494 456.731 78.1994 456.731 80.7494Z" stroke="#A9C6EA" stroke-miterlimit="10"/>
<path d="M546.68 87.6396C546.68 88.8996 545.65 89.9296 544.39 89.9296C543.13 89.9296 542.1 88.8996 542.1 87.6396C542.1 86.3796 543.13 85.3496 544.39 85.3496C545.65 85.3496 546.68 86.3696 546.68 87.6396Z" stroke="#A9C6EA" stroke-miterlimit="10"/>
<path d="M406.66 259.71C406.66 260.97 405.63 262 404.37 262C403.11 262 402.08 260.97 402.08 259.71C402.08 258.45 403.11 257.42 404.37 257.42C405.63 257.42 406.66 258.45 406.66 259.71Z" stroke="#A9C6EA" stroke-miterlimit="10"/>
<path d="M140.541 95.4394C140.541 96.6994 139.511 97.7294 138.251 97.7294C136.991 97.7294 135.961 96.6994 135.961 95.4394C135.961 94.1794 136.991 93.1494 138.251 93.1494C139.521 93.1494 140.541 94.1794 140.541 95.4394Z" stroke="#A9C6EA" stroke-miterlimit="10"/>
<path d="M37.0312 238.55C37.0312 239.81 36.0012 240.84 34.7412 240.84C33.4812 240.84 32.4512 239.81 32.4512 238.55C32.4512 237.29 33.4812 236.26 34.7412 236.26C36.0012 236.26 37.0312 237.29 37.0312 238.55Z" stroke="#A9C6EA" stroke-miterlimit="10"/>
<path d="M149.84 191.64C149.84 192.9 148.81 193.93 147.55 193.93C146.29 193.93 145.26 192.9 145.26 191.64C145.26 190.38 146.29 189.35 147.55 189.35C148.82 189.35 149.84 190.37 149.84 191.64Z" stroke="#A9C6EA" stroke-miterlimit="10"/>
<path d="M79.1719 120.569V125.989" stroke="#A9C6EA" stroke-miterlimit="10"/>
<path d="M81.8809 123.279H76.4609" stroke="#A9C6EA" stroke-miterlimit="10"/>
<path d="M396.252 48.2695V53.6895" stroke="#A9C6EA" stroke-miterlimit="10"/>
<path d="M398.961 50.9795H393.541" stroke="#A9C6EA" stroke-miterlimit="10"/>
<path d="M566.842 132.09V137.51" stroke="#A9C6EA" stroke-miterlimit="10"/>
<path d="M569.551 134.8H564.131" stroke="#A9C6EA" stroke-miterlimit="10"/>
<path d="M655.451 204.529V209.949" stroke="#A9C6EA" stroke-miterlimit="10"/>
<path d="M658.16 207.239H652.74" stroke="#A9C6EA" stroke-miterlimit="10"/>
<path d="M629.82 299.67V305.09" stroke="#A9C6EA" stroke-miterlimit="10"/>
<path d="M632.529 302.38H627.109" stroke="#A9C6EA" stroke-miterlimit="10"/>
<path d="M474.68 239.61C476.41 236.56 477.83 233.27 478.85 229.76C479.87 226.25 480.44 222.71 480.61 219.21L470.98 217.88C471.06 214.63 470.69 211.43 469.92 208.35L479.04 204.94C477.14 198.03 473.62 191.64 468.81 186.32L461.05 192.2C458.86 189.9 456.36 187.87 453.57 186.2L457.61 177.35C454.56 175.62 451.27 174.2 447.76 173.18C444.25 172.16 440.71 171.59 437.21 171.42L435.88 181.05C432.63 180.97 429.43 181.34 426.35 182.11L422.94 172.99C416.03 174.89 409.64 178.41 404.32 183.22L410.2 190.98C407.9 193.17 405.87 195.67 404.2 198.46L395.35 194.42C393.62 197.47 392.2 200.76 391.18 204.27C390.16 207.78 389.59 211.32 389.42 214.82L399.05 216.15C398.97 219.4 399.34 222.6 400.11 225.68L390.99 229.09C392.89 236 396.41 242.39 401.22 247.71L408.98 241.84C411.17 244.14 413.67 246.17 416.46 247.84L412.42 256.69C415.47 258.42 418.76 259.84 422.27 260.86C425.78 261.88 429.32 262.45 432.82 262.62L434.15 252.99C437.4 253.07 440.6 252.7 443.68 251.93L447.09 261.05C454 259.15 460.39 255.63 465.71 250.82L459.84 243.06C462.14 240.87 464.17 238.37 465.84 235.58L474.68 239.61ZM428.58 239.14C416.36 235.59 409.34 222.81 412.89 210.59C416.44 198.37 429.22 191.35 441.44 194.9C453.66 198.45 460.68 211.23 457.13 223.45C453.58 235.66 440.8 242.69 428.58 239.14ZM430.27 233.33C421.26 230.71 416.08 221.29 418.7 212.28C421.32 203.27 430.74 198.09 439.75 200.71C448.76 203.33 453.94 212.75 451.32 221.76C448.71 230.77 439.28 235.95 430.27 233.33Z" fill="#E4ECF9"/>
<path d="M484.43 145.74C484.28 144.02 483.93 142.28 483.36 140.57C482.79 138.86 482.03 137.26 481.12 135.79L476.83 137.95C475.95 136.61 474.9 135.41 473.73 134.37L476.48 130.43C473.77 128.15 470.55 126.54 467.1 125.73L465.59 130.29C464.06 129.97 462.47 129.85 460.87 129.95L460.03 125.22C458.31 125.37 456.57 125.72 454.86 126.29C453.15 126.86 451.55 127.62 450.08 128.53L452.24 132.82C450.9 133.7 449.7 134.75 448.66 135.92L444.72 133.17C442.44 135.88 440.83 139.1 440.02 142.55L444.58 144.06C444.26 145.59 444.14 147.18 444.24 148.78L439.51 149.62C439.66 151.34 440.01 153.08 440.58 154.79C441.15 156.5 441.91 158.1 442.82 159.57L447.11 157.41C447.99 158.75 449.04 159.95 450.21 160.99L447.46 164.93C450.17 167.21 453.39 168.82 456.84 169.63L458.35 165.07C459.88 165.39 461.47 165.51 463.07 165.41L463.91 170.14C465.63 169.99 467.37 169.64 469.08 169.07C470.79 168.5 472.39 167.74 473.86 166.83L471.7 162.54C473.04 161.66 474.24 160.61 475.28 159.44L479.22 162.19C481.5 159.48 483.11 156.26 483.92 152.81L479.36 151.3C479.68 149.77 479.8 148.18 479.7 146.58L484.43 145.74ZM465 156.77C459.98 158.44 454.56 155.73 452.89 150.71C451.22 145.69 453.93 140.27 458.95 138.6C463.97 136.93 469.39 139.64 471.06 144.66C472.73 149.68 470.01 155.1 465 156.77Z" fill="#E4ECF9"/>
<path d="M248.24 113.339C248.01 110.699 247.48 108.049 246.61 105.429C245.74 102.809 244.57 100.359 243.18 98.1092L236.62 101.409C235.27 99.3492 233.67 97.5192 231.87 95.9392L236.08 89.9092C231.93 86.4292 227 83.9592 221.73 82.7192L219.42 89.7092C217.07 89.2192 214.64 89.0292 212.19 89.1892L210.9 81.9492C208.26 82.1792 205.61 82.7092 202.98 83.5792C200.36 84.4492 197.91 85.6192 195.66 87.0092L198.96 93.5692C196.9 94.9192 195.07 96.5192 193.49 98.3192L187.46 94.1092C183.98 98.2592 181.51 103.189 180.27 108.459L187.26 110.769C186.77 113.119 186.58 115.549 186.74 117.999L179.5 119.289C179.73 121.929 180.26 124.579 181.13 127.199C182 129.819 183.17 132.269 184.56 134.519L191.12 131.219C192.47 133.279 194.07 135.109 195.87 136.689L191.66 142.719C195.81 146.199 200.74 148.669 206.01 149.909L208.32 142.919C210.67 143.409 213.1 143.599 215.55 143.439L216.84 150.679C219.48 150.449 222.13 149.919 224.75 149.049C227.37 148.179 229.82 147.009 232.07 145.619L228.77 139.059C230.83 137.709 232.66 136.109 234.24 134.309L240.27 138.519C243.75 134.369 246.22 129.439 247.46 124.169L240.47 121.859C240.96 119.509 241.15 117.079 240.99 114.629L248.24 113.339ZM218.5 130.219C210.82 132.769 202.53 128.619 199.97 120.939C197.42 113.259 201.57 104.969 209.25 102.409C216.93 99.8592 225.22 104.009 227.78 111.689C230.33 119.369 226.17 127.659 218.5 130.219Z" fill="#E4ECF9"/>
<path d="M182.48 167.999C183.46 166.269 184.26 164.409 184.84 162.419C185.42 160.429 185.74 158.429 185.84 156.439L180.38 155.679C180.42 153.839 180.22 152.029 179.78 150.279L184.95 148.349C183.87 144.429 181.88 140.809 179.15 137.799L174.75 141.129C173.51 139.829 172.09 138.679 170.51 137.729L172.8 132.719C171.07 131.739 169.21 130.939 167.22 130.359C165.23 129.779 163.23 129.459 161.24 129.359L160.48 134.819C158.64 134.779 156.83 134.979 155.08 135.419L153.15 130.249C149.23 131.329 145.61 133.319 142.6 136.049L145.93 140.449C144.63 141.689 143.48 143.109 142.53 144.689L137.52 142.399C136.54 144.129 135.74 145.989 135.16 147.979C134.58 149.969 134.26 151.969 134.16 153.959L139.62 154.719C139.58 156.559 139.78 158.369 140.22 160.119L135.05 162.049C136.13 165.969 138.12 169.589 140.85 172.599L145.25 169.269C146.49 170.569 147.91 171.719 149.49 172.669L147.2 177.679C148.93 178.659 150.79 179.459 152.78 180.039C154.77 180.619 156.77 180.939 158.76 181.039L159.52 175.579C161.36 175.629 163.17 175.419 164.92 174.979L166.85 180.149C170.77 179.069 174.39 177.079 177.4 174.349L174.07 169.949C175.37 168.709 176.52 167.289 177.47 165.709L182.48 167.999ZM156.37 167.739C149.45 165.729 145.47 158.489 147.48 151.569C149.49 144.649 156.73 140.669 163.65 142.679C170.57 144.689 174.55 151.929 172.54 158.849C170.53 165.769 163.29 169.749 156.37 167.739ZM157.33 164.449C152.23 162.969 149.29 157.629 150.77 152.519C152.25 147.419 157.59 144.479 162.7 145.959C167.8 147.439 170.74 152.779 169.26 157.889C167.77 162.999 162.43 165.929 157.33 164.449Z" fill="#E4ECF9"/>
<path d="M308.309 442.2C311.349 435.92 327.229 408.41 343.969 399.33C346.099 398.18 348.339 397.11 350.749 396.88C353.159 396.65 355.789 397.42 357.249 399.35C358.579 401.11 358.729 403.52 358.339 405.69C355.299 422.89 335.709 429.48 326.139 442.2" fill="#D7E3F4"/>
<path d="M308.309 442.1C308.309 442.1 324.059 411.01 339.439 392.49C346.719 383.72 351.719 367.48 344.069 362.61C332.989 355.57 322.109 371.25 317.119 379.04C309.579 390.82 304.029 403.85 299.749 417.13C299.129 419.05 293.479 442.1 293.369 442.1H297.189H308.309Z" fill="#D7E3F4"/>
<path d="M338.43 371.51C323.91 389.87 311.86 417.06 303.85 442.1" stroke="white" stroke-miterlimit="10"/>
<path d="M275.279 442.1C275.279 442.1 273.449 394.26 252.279 372.14C246.559 366.16 237.179 359.95 229.489 358.25C219.519 356.05 219.789 367.77 221.589 375.37C223.929 385.22 231.979 391.36 237.779 398.69C248.459 412.19 254.829 421.09 262.629 442.09" fill="#B2CDED"/>
<path d="M281.649 442.099C287.359 431.639 285.349 386.939 282.489 372.929C280.499 363.199 276.409 353.699 270.819 345.929C265.759 338.889 250.619 323.36 241.709 329.67C236.559 333.32 244.359 346.459 246.419 350.409C253.099 363.199 258.389 376.88 262.519 390.95C267.309 407.23 270.919 424.33 272.219 441.45C272.239 441.67 272.249 441.879 272.269 442.099" fill="#D7E3F4"/>
<path d="M282.689 442.1C280.809 417.07 282.009 378.65 293.299 356.95C306.099 332.34 322.779 320.98 325.199 330.57C332.219 358.39 304.039 433.2 296.109 442.1" fill="#B2CDED"/>
<path d="M226.699 366.24C249.479 382.12 265.199 412.19 268.129 442.1" stroke="white" stroke-miterlimit="10"/>
<path d="M250.008 337.649C261.198 347.639 266.888 363.279 270.328 378.409C275.068 399.259 277.348 420.619 278.098 442.089" stroke="white" stroke-miterlimit="10"/>
<path d="M318.008 341.09C304.228 372.74 292.608 406.94 290.668 442.1" stroke="white" stroke-miterlimit="10"/>
<path d="M350.518 402.89C350.518 402.89 330.388 416.26 316.328 442.11" stroke="white" stroke-miterlimit="10"/>
<path d="M556.549 442.019C559.539 402.479 556.209 363.699 571.269 326.229C575.549 315.599 585.289 298.819 598.759 298.249C619.569 297.359 606.829 339.169 603.059 354.809C600.639 364.869 597.019 374.879 593.269 384.489C586.609 401.549 576.599 425.389 569.029 442.009" fill="#B2CDED"/>
<path d="M545.749 442.02C539.199 425.26 532.789 408.44 526.309 391.65C520.559 376.76 513.879 362.2 509.229 346.9C505.699 335.26 496.559 308.57 509.929 300.37C533.739 285.76 552.779 342.28 555.289 362.35C558.599 388.81 557.889 415.42 558.279 442.01" fill="#D7E3F4"/>
<path d="M526.819 442.019C526.819 442.019 512.899 424.239 506.629 415.909C492.609 397.289 475.319 377.059 477.899 356.129C478.489 351.309 480.259 345.949 485.099 343.099C488.059 341.359 491.739 340.869 495.099 341.189C506.489 342.279 516.699 358.819 521.829 367.299C531.869 383.909 547.409 442.019 547.409 442.019" fill="#B2CDED"/>
<path d="M516.178 312.09C533.168 346.44 549.748 410.06 550.148 442.02" stroke="white" stroke-miterlimit="10"/>
<path d="M489.77 351.55C504.72 380.26 535.109 442.02 535.109 442.02" stroke="white" stroke-miterlimit="10"/>
<path d="M597.888 307.34C585.688 334.54 568.978 393.5 562.248 442.1" stroke="white" stroke-miterlimit="10"/>
<path d="M569.609 442.019C569.609 442.019 576.559 411.029 581.379 393.439C586.619 374.309 603.739 345.039 621.739 336.719C625.879 334.809 630.879 333.489 634.889 335.679C637.339 337.019 639.009 339.499 639.909 342.139C642.969 351.089 627.979 379.339 622.829 387.269C612.739 402.799 598.279 427.469 586.819 442.019" fill="#D7E3F4"/>
<path d="M631.548 342.949C610.268 361.429 581.798 420.349 573.838 442.019" stroke="white" stroke-miterlimit="10"/>
<path d="M107.76 422.739C105.03 408.289 100.56 379.629 97.1695 362.049C95.5295 353.539 90.7795 343.149 87.7695 335.069C82.2695 320.339 68.9795 294.739 52.4995 296.109C32.0495 297.809 48.5795 334.569 53.7795 348.449C57.1295 357.369 61.6395 366.099 66.2495 374.459C74.4195 389.279 86.5295 409.919 95.5495 424.239" fill="#B2CDED"/>
<path d="M119.569 407.149C114.579 394.099 115.929 377.499 115.949 363.689C115.979 338.829 124.609 303.879 140.799 287.559C147.469 280.839 158.519 273.359 165.689 283.639C172.479 293.379 164.629 319.839 162.149 331.209C157.299 353.469 134.099 394.709 127.389 416.269" fill="#B2CDED"/>
<path d="M153.789 294.999C142.289 324.839 126.819 379.269 122.879 411.009" stroke="white" stroke-miterlimit="10"/>
<path d="M54.2305 304.35C68.8105 327.8 90.1705 378.02 101.48 421.74" stroke="white" stroke-miterlimit="10"/>
<path d="M108.34 391.149C114.47 381.109 121.75 348.529 123.41 336.889C125.74 320.519 125.99 303.219 121.94 287.089C119.2 276.209 106.69 243.649 90.9802 258.329C83.6002 265.229 84.7802 302.799 85.6602 312.859C87.3802 332.559 97.5802 367.829 101.09 387.289" fill="#D7E3F4"/>
<path d="M99.6797 266.72C110.46 294.81 107.73 364.61 104.36 389.03" stroke="white" stroke-miterlimit="10"/>
<path d="M12.5 442.1H640.32" stroke="#648ACC" stroke-miterlimit="10"/>
<path d="M265.889 159.42C268.959 156.39 276.409 146.16 277.249 146.41C278.099 146.66 275.519 150.3 276.259 150.37C276.989 150.45 281.329 145.13 282.109 145.6C283.159 146.25 278.429 151.46 278.429 151.46C278.429 151.46 283.899 146.01 284.649 146.83C285.179 147.41 281.199 151.77 279.889 153.62C281.569 151.79 284.639 149.15 285.179 149.77C285.719 150.38 283.069 153.4 281.159 155.83C282.489 154.43 285.049 152.01 285.579 152.56C286.099 153.11 279.699 162.86 273.829 169.98" fill="#F886BC"/>
<path d="M226.82 196.79C252.93 174.48 270.45 154.09 270.45 154.09L280.25 160.64C280.25 160.64 263.79 186.15 242.25 208.11" fill="#F886BC"/>
<path d="M219.02 204.25C224.41 197.48 233.32 190.93 233.32 190.93L249.13 203.72L235.26 220" fill="#D37B00"/>
<path d="M246.271 320.239L237.901 430.489L247.811 436.799C247.811 436.799 220.591 438.219 219.701 437.329C218.811 436.439 220.821 430.329 220.821 430.329L216.271 319.989L246.271 320.239Z" fill="#F886BC"/>
<path d="M224.031 437.239L219.981 433.249L220.551 431.159L226.781 437.249L229.781 437.259L240.351 432.039L251.821 439.219C253.151 440.049 252.551 442.099 250.991 442.089L235.571 442.029L230.651 438.609L229.251 438.599L229.241 442.009L219.201 441.969L219.221 437.209L224.031 437.239Z" fill="#28364C"/>
<path d="M224.281 319.649L199.591 430.489L209.501 436.799C209.501 436.799 182.281 438.219 181.391 437.329C180.501 436.439 182.511 430.329 182.511 430.329L189.731 319.659H224.281V319.649Z" fill="#F886BC"/>
<path d="M185.721 437.239L181.671 433.249L182.241 431.159L188.471 437.249L191.471 437.259L202.041 432.039L213.511 439.219C214.841 440.049 214.241 442.099 212.681 442.089L197.261 442.029L192.341 438.609L190.941 438.599L190.931 442.009L180.891 441.969L180.911 437.209L185.721 437.239Z" fill="#28364C"/>
<path d="M198.32 262.479C184.74 286.389 184.76 330.859 184.76 330.859H247.73C247.73 330.859 246.86 291.789 239.83 269.779L198.32 262.479Z" fill="#101D54"/>
<path d="M219.361 264.63L220.931 330.86" stroke="#273B7A" stroke-width="0.75" stroke-miterlimit="10"/>
<path d="M233.301 267.409C233.301 267.409 230.121 275.479 219.371 278.269" stroke="#273B7A" stroke-width="0.75" stroke-miterlimit="10"/>
<path d="M288.971 239.229C293.111 240.429 305.671 241.959 305.861 242.819C306.051 243.679 301.631 243.199 301.921 243.879C302.211 244.559 308.971 245.749 308.931 246.669C308.881 247.909 302.021 246.309 302.021 246.309C302.021 246.309 309.441 248.429 309.091 249.489C308.841 250.239 303.101 248.879 300.841 248.639C303.251 249.219 307.061 250.609 306.781 251.389C306.501 252.159 302.581 251.309 299.531 250.829C301.401 251.309 304.761 252.369 304.541 253.089C304.321 253.809 294.621 252.429 285.551 250.769" fill="#F886BC"/>
<path d="M214.89 197.859C214.89 197.859 215.93 200.519 221.58 200.519C225.53 200.519 227.02 198.449 227.02 198.449C227.02 198.449 228.47 199.749 244.03 220.169C247.32 224.489 246.61 233.819 241.11 241.879C239.81 249.979 239.32 259.409 239.83 269.779H194.81C194.81 269.779 194.02 237.429 197.14 219.789C198.98 209.359 206.8 201.059 214.89 197.859Z" fill="#F28E02"/>
<path d="M244.639 211.85C274.639 235.39 295.439 240.5 295.439 240.5L292.989 252.03C292.989 252.03 256.959 247.46 233.289 227.57" fill="#F886BC"/>
<path fill-rule="evenodd" clip-rule="evenodd" d="M227.211 199.229C234.911 200.519 246.721 211.85 246.721 211.85L234.181 230.249C234.181 230.249 228.861 226.569 221.641 220.369" fill="#F28E02"/>
<path d="M234.19 229.569C224.8 223.849 220.58 219.659 220.58 219.659" stroke="#A31D4A" stroke-width="0.75" stroke-miterlimit="10"/>
<path fill-rule="evenodd" clip-rule="evenodd" d="M230.571 177.92C233.701 183.09 234.991 188.27 230.611 190.92C226.231 193.57 219.171 194.89 214.691 187.53C211.551 182.36 212.581 176.01 216.961 173.36C221.351 170.71 227.441 172.75 230.571 177.92Z" fill="#F886BC"/>
<path d="M226.929 179.25C227.069 179.77 227.49 180.39 228.01 180.37C228.16 180.36 228.269 180.27 228.309 180.14C228.609 179.25 226.629 178.15 226.929 179.25Z" fill="#0B0B3A"/>
<path d="M224.85 178.8C225.66 177.66 226.73 177.19 227.82 177.06" stroke="#0B0B3A" stroke-width="0.5" stroke-miterlimit="10" stroke-linecap="round"/>
<path d="M231.771 183.82L228.871 185.27C228.871 185.27 229.891 187.77 231.461 187.31C232.771 186.91 231.771 183.82 231.771 183.82Z" fill="white"/>
<path fill-rule="evenodd" clip-rule="evenodd" d="M227.211 199.23C227.211 199.23 224.701 200.6 221.581 200.52C217.051 200.41 214.891 198.6 214.891 198.6L217.881 185.84L228.861 186.64L227.211 199.23Z" fill="#F886BC"/>
<path fill-rule="evenodd" clip-rule="evenodd" d="M229.52 178.16C229.52 178.16 233.27 180.67 233.4 181.34C233.53 182.01 231.95 182.97 231.95 182.97" fill="#F886BC"/>
<path d="M219.02 169.8C218.62 170 217.22 169.63 216.71 169.63C216 169.63 215.28 169.68 214.58 169.81C210.4 170.57 207.28 174.03 205.31 177.59C204.02 179.93 202.93 182.53 200.58 184.01C195.41 187.27 188.62 186.1 182.82 188.05C176.92 190.04 172.41 196.02 173.99 202.4C174.51 204.49 175.61 206.39 176.25 208.45C177.63 212.83 176.98 217.94 179.62 221.7C180.33 222.71 181.24 223.56 182.22 224.31C186.62 227.65 192.61 228.81 197.94 227.33C203.27 225.86 207.82 221.79 209.87 216.66C212.21 210.83 211.48 203.87 214.89 198.6C216.48 196.13 218.87 194.25 220.45 191.78C221.9 189.52 222.66 185.27 222.83 182.55C222.87 181.92 221.74 176.7 222.08 176.7C224.79 176.7 228.26 175.01 229.86 173.41C227.83 168.93 222.62 167.97 219.02 169.8Z" fill="#0B0B3A"/>
<path d="M221.95 183.23C221.95 183.23 220.38 182.14 219.34 183.68C218 185.68 221.22 188.2 222.77 188.32C224.32 188.44 224.28 186.75 224.28 186.75" fill="#F886BC"/>
<path d="M559.092 151.54H461.182V282.29H559.092V151.54Z" fill="#D9E4F4" stroke="#648ACC" stroke-miterlimit="10"/>
<path d="M573.711 151.54H475.801V282.29H573.711V151.54Z" fill="white" stroke="#648ACC" stroke-miterlimit="10"/>
<path opacity="0.45" d="M557.501 178.8H492.801C490.811 178.8 489.201 177.19 489.201 175.2V165.3C489.201 163.31 490.811 161.7 492.801 161.7H557.501C559.491 161.7 561.101 163.31 561.101 165.3V175.2C561.101 177.19 559.491 178.8 557.501 178.8Z" fill="#D7E3F4"/>
<path opacity="0.45" d="M526.991 271.51H492.801C490.811 271.51 489.201 269.9 489.201 267.91V227.05C489.201 225.06 490.811 223.45 492.801 223.45H526.991C528.981 223.45 530.591 225.06 530.591 227.05V267.91C530.581 269.9 528.971 271.51 526.991 271.51Z" fill="#D7E3F4"/>
<path d="M494.571 195.81C494.571 195.81 494.151 195.81 492.391 195.81C490.631 195.81 489.211 193.94 489.211 191.64C489.211 189.34 490.631 187.47 492.391 187.47C492.721 187.47 494.571 187.47 494.571 187.47V195.81Z" fill="#B2CDED"/>
<path d="M497.751 191.64C497.751 193.94 496.331 195.81 494.571 195.81C492.811 195.81 491.391 193.94 491.391 191.64C491.391 189.34 492.811 187.47 494.571 187.47C496.331 187.47 497.751 189.33 497.751 191.64Z" fill="#D7E3F4"/>
<path d="M515.692 195.81C515.692 195.81 515.272 195.81 513.512 195.81C511.752 195.81 510.332 193.94 510.332 191.64C510.332 189.34 511.752 187.47 513.512 187.47C513.842 187.47 515.692 187.47 515.692 187.47V195.81Z" fill="#B2CDED"/>
<path d="M518.872 191.64C518.872 193.94 517.452 195.81 515.692 195.81C513.932 195.81 512.512 193.94 512.512 191.64C512.512 189.34 513.932 187.47 515.692 187.47C517.442 187.46 518.872 189.33 518.872 191.64Z" fill="#D7E3F4"/>
<path d="M536.801 195.81C536.801 195.81 536.381 195.81 534.621 195.81C532.861 195.81 531.441 193.94 531.441 191.64C531.441 189.34 532.861 187.47 534.621 187.47C534.951 187.47 536.801 187.47 536.801 187.47V195.81Z" fill="#B2CDED"/>
<path d="M539.981 191.64C539.981 193.94 538.561 195.81 536.801 195.81C535.041 195.81 533.621 193.94 533.621 191.64C533.621 189.34 535.041 187.47 536.801 187.47C538.561 187.46 539.981 189.33 539.981 191.64Z" fill="#D7E3F4"/>
<path d="M557.922 195.81C557.922 195.81 557.502 195.81 555.742 195.81C553.982 195.81 552.562 193.94 552.562 191.64C552.562 189.34 553.982 187.47 555.742 187.47C556.072 187.47 557.922 187.47 557.922 187.47V195.81Z" fill="#B2CDED"/>
<path d="M561.102 191.64C561.102 193.94 559.682 195.81 557.922 195.81C556.162 195.81 554.742 193.94 554.742 191.64C554.742 189.34 556.162 187.47 557.922 187.47C559.672 187.46 561.102 189.33 561.102 191.64Z" fill="#D7E3F4"/>
<path d="M494.571 216.02C494.571 216.02 494.151 216.02 492.391 216.02C490.631 216.02 489.211 214.15 489.211 211.85C489.211 209.55 490.631 207.68 492.391 207.68C492.721 207.68 494.571 207.68 494.571 207.68V216.02Z" fill="#B2CDED"/>
<path d="M497.751 211.85C497.751 214.15 496.331 216.02 494.571 216.02C492.811 216.02 491.391 214.15 491.391 211.85C491.391 209.55 492.811 207.68 494.571 207.68C496.331 207.68 497.751 209.54 497.751 211.85Z" fill="#D7E3F4"/>
<path d="M515.692 216.02C515.692 216.02 515.272 216.02 513.512 216.02C511.752 216.02 510.332 214.15 510.332 211.85C510.332 209.55 511.752 207.68 513.512 207.68C513.842 207.68 515.692 207.68 515.692 207.68V216.02Z" fill="#B2CDED"/>
<path d="M518.872 211.85C518.872 214.15 517.452 216.02 515.692 216.02C513.932 216.02 512.512 214.15 512.512 211.85C512.512 209.55 513.932 207.68 515.692 207.68C517.442 207.67 518.872 209.54 518.872 211.85Z" fill="#D7E3F4"/>
<path d="M536.801 216.02C536.801 216.02 536.381 216.02 534.621 216.02C532.861 216.02 531.441 214.15 531.441 211.85C531.441 209.55 532.861 207.68 534.621 207.68C534.951 207.68 536.801 207.68 536.801 207.68V216.02Z" fill="#B2CDED"/>
<path d="M539.981 211.85C539.981 214.15 538.561 216.02 536.801 216.02C535.041 216.02 533.621 214.15 533.621 211.85C533.621 209.55 535.041 207.68 536.801 207.68C538.561 207.67 539.981 209.54 539.981 211.85Z" fill="#D7E3F4"/>
<path d="M557.922 216.02C557.922 216.02 557.502 216.02 555.742 216.02C553.982 216.02 552.562 214.15 552.562 211.85C552.562 209.55 553.982 207.68 555.742 207.68C556.072 207.68 557.922 207.68 557.922 207.68V216.02Z" fill="#B2CDED"/>
<path d="M561.102 211.85C561.102 214.15 559.682 216.02 557.922 216.02C556.162 216.02 554.742 214.15 554.742 211.85C554.742 209.55 556.162 207.68 557.922 207.68C559.672 207.67 561.102 209.54 561.102 211.85Z" fill="#D7E3F4"/>
<path d="M89.3809 442.099H255.541V314.779H131.191L89.3809 363.669V442.099Z" fill="white" stroke="#648ACC" stroke-miterlimit="10"/>
<path d="M208.371 442.099H269.601V314.779H249.341L208.371 363.669V442.099Z" fill="#D9E4F4" stroke="#648ACC" stroke-miterlimit="10"/>
<path d="M89.385 442.1H208.375V363.67H89.385L89.385 442.1Z" fill="#D9E4F4" stroke="#648ACC" stroke-miterlimit="10"/>
<path d="M219.022 329.049C220.162 330.089 222.492 329.389 224.232 327.479C225.972 325.569 226.452 323.179 225.312 322.139C224.542 321.429 222.952 319.979 222.952 319.979L216.672 326.889C216.662 326.889 217.882 328.009 219.022 329.049Z" fill="#B2CDED"/>
<path d="M216.812 327.029C217.952 328.069 220.282 327.369 222.012 325.459C223.752 323.549 224.232 321.159 223.092 320.119C221.952 319.079 219.622 319.779 217.892 321.689C216.152 323.589 215.672 325.989 216.812 327.029Z" fill="#D7E3F4"/>
<path d="M200.5 329.049C201.64 330.089 203.97 329.389 205.71 327.479C207.45 325.569 207.93 323.179 206.79 322.139C206.02 321.429 204.43 319.979 204.43 319.979L198.15 326.889C198.14 326.889 199.36 328.009 200.5 329.049Z" fill="#B2CDED"/>
<path d="M198.291 327.029C199.431 328.069 201.761 327.369 203.491 325.459C205.231 323.549 205.711 321.159 204.571 320.119C203.431 319.079 201.101 319.779 199.361 321.689C197.631 323.589 197.151 325.989 198.291 327.029Z" fill="#D7E3F4"/>
<path d="M162.372 329.049C163.512 330.089 165.842 329.389 167.582 327.479C169.322 325.569 169.802 323.179 168.662 322.139C167.892 321.429 166.302 319.979 166.302 319.979L160.022 326.889C160.012 326.889 161.232 328.009 162.372 329.049Z" fill="#B2CDED"/>
<path d="M160.162 327.029C161.302 328.069 163.632 327.369 165.362 325.459C167.102 323.549 167.582 321.159 166.442 320.119C165.302 319.079 162.972 319.779 161.232 321.689C159.502 323.589 159.022 325.989 160.162 327.029Z" fill="#D7E3F4"/>
<path d="M142.731 329.049C143.871 330.089 146.201 329.389 147.941 327.479C149.681 325.569 150.161 323.179 149.021 322.139C148.251 321.429 146.661 319.979 146.661 319.979L140.381 326.889C140.371 326.889 141.591 328.009 142.731 329.049Z" fill="#B2CDED"/>
<path d="M140.521 327.029C141.661 328.069 143.991 327.369 145.721 325.459C147.461 323.549 147.941 321.159 146.801 320.119C145.661 319.079 143.331 319.779 141.591 321.689C139.861 323.589 139.381 325.989 140.521 327.029Z" fill="#D7E3F4"/>
<path opacity="0.45" d="M206.961 354.759L213.561 346.199H113.011L105.461 354.759H206.961Z" fill="#D7E3F4"/>
<path d="M318.151 295.279V401.609C318.151 406.749 313.981 410.919 308.841 410.919H249.691C244.551 410.919 240.381 406.749 240.381 401.609V398.559" stroke="#648ACC" stroke-miterlimit="10"/>
<path d="M332.811 300.16V421.65C332.811 426.9 328.561 431.15 323.311 431.15H229.261C224.121 431.15 219.951 426.98 219.951 421.84V398.58" stroke="#648ACC" stroke-miterlimit="10"/>
<path d="M359.42 298.12V368.6C359.42 373.74 363.59 377.91 368.73 377.91H442.19C447.33 377.91 451.5 373.74 451.5 368.6V247.86C451.5 242.72 455.67 238.55 460.81 238.55H491.1" stroke="#648ACC" stroke-miterlimit="10"/>
<path d="M347.611 300.159V398.939C347.611 404.079 351.781 408.249 356.921 408.249H491.791C496.931 408.249 501.101 404.079 501.101 398.939V261.609" stroke="#648ACC" stroke-miterlimit="10"/>
<path d="M251.371 145.58C251.371 97.1902 290.601 57.9502 339.001 57.9502C387.391 57.9502 426.631 97.1802 426.631 145.58C426.631 164.87 420.391 182.7 409.831 197.18C397.321 216.03 364.821 237.31 364.821 250.06V264.62C364.821 267.53 362.461 269.88 359.561 269.88H345.481H332.541H318.461C315.551 269.88 313.201 267.52 313.201 264.62V250.06C313.201 237.31 280.701 216.03 268.191 197.18C257.611 182.71 251.371 164.88 251.371 145.58Z" fill="#F28E02"/>
<path d="M348.95 268.43C348.85 266.23 347.28 231.06 350.1 200.23C346.65 200.64 342.95 200.86 339 200.86C335.05 200.86 331.36 200.64 327.9 200.23C330.72 231.06 329.15 266.23 329.04 268.43L327.49 268.36C327.51 267.82 329.14 231.44 326.26 200.02C300.27 196.41 288.64 181.68 286.55 167.79C285.33 159.67 288.1 151.59 293.14 148.57C296.2 146.74 299.9 146.37 303.83 147.5C310.02 149.28 315.9 154.61 319.56 161.77C323.79 170.04 326.29 183.76 327.73 198.66C331.22 199.09 334.96 199.32 338.97 199.32C342.99 199.32 346.73 199.09 350.21 198.66C351.65 183.76 354.15 170.04 358.38 161.77C362.04 154.61 367.93 149.28 374.11 147.5C378.04 146.37 381.74 146.74 384.8 148.57C389.84 151.59 392.62 159.67 391.39 167.79C389.3 181.69 377.67 196.41 351.68 200.02C348.8 231.43 350.43 267.81 350.45 268.36L348.95 268.43ZM378.49 148.41C377.24 148.41 375.93 148.6 374.58 148.99C368.79 150.65 363.27 155.69 359.8 162.47C355.73 170.42 353.3 183.81 351.88 198.44C376.78 194.85 387.92 180.82 389.91 167.56C391.02 160.15 388.5 152.56 384.05 149.9C382.39 148.91 380.51 148.41 378.49 148.41ZM299.51 148.41C297.49 148.41 295.61 148.91 293.95 149.9C289.5 152.56 286.98 160.16 288.09 167.56C290.08 180.81 301.23 194.85 326.12 198.44C324.7 183.81 322.27 170.42 318.2 162.47C314.73 155.69 309.2 150.65 303.42 148.99C302.08 148.61 300.77 148.41 299.51 148.41Z" fill="white"/>
<path d="M412.039 150.609C409.259 150.609 407.009 148.359 407.009 145.579C407.009 114.399 385.929 87.2895 355.749 79.6495C353.059 78.9695 351.429 76.2295 352.109 73.5395C352.789 70.8495 355.529 69.2195 358.219 69.8995C392.869 78.6695 417.069 109.789 417.069 145.579C417.059 148.359 414.809 150.609 412.039 150.609Z" fill="#FFEE99"/>
<path d="M337.311 72.4099C337.311 75.1899 339.561 77.4399 342.341 77.4399C345.121 77.4399 347.371 75.1899 347.371 72.4099C347.371 69.6299 345.121 67.3799 342.341 67.3799C339.561 67.3799 337.311 69.6299 337.311 72.4099Z" fill="#FFEE99"/>
<g opacity="0.55">
<g opacity="0.55">
<g opacity="0.55">
<path opacity="0.55" d="M426.461 150.77C421.621 186.7 392.621 223.9 339.001 223.9C285.391 223.9 257.461 184.96 251.541 150.77C252.551 168.07 258.561 184.02 268.171 197.18C280.681 216.03 313.181 237.31 313.181 250.06V264.62C313.181 267.53 315.541 269.88 318.441 269.88H332.521H345.461H359.541C362.451 269.88 364.801 267.52 364.801 264.62V250.06C364.801 237.31 397.301 216.03 409.811 197.18C419.431 184.01 425.451 168.06 426.461 150.77Z" fill="#F28E02"/>
</g>
</g>
</g>
<path d="M366.891 256.279H311.121V282.859C311.121 287.199 312.361 291.449 314.681 295.119C319.081 302.049 326.711 306.239 334.921 306.239H343.101C351.311 306.239 358.941 302.039 363.341 295.119C365.671 291.459 366.901 287.199 366.901 282.859V256.279H366.891Z" fill="#28364C"/>
<path d="M311.11 274.2C311.27 274.21 311.43 274.2 311.59 274.18L367.36 268.4C369.26 268.2 370.59 266.49 370.33 264.58C370.07 262.67 368.3 261.27 366.4 261.47L310.62 267.25C308.72 267.45 307.39 269.16 307.65 271.07C307.91 272.83 309.4 274.14 311.11 274.2Z" fill="#475577"/>
<path d="M311.11 286.369C311.27 286.379 311.43 286.369 311.59 286.349L367.36 280.569C369.26 280.369 370.59 278.659 370.33 276.749C370.07 274.839 368.3 273.449 366.4 273.639L310.62 279.419C308.72 279.619 307.39 281.329 307.65 283.239C307.91 284.989 309.4 286.309 311.11 286.369Z" fill="#475577"/>
<path d="M313.34 298.41C313.5 298.42 313.66 298.41 313.82 298.39L366.69 292.91C368.59 292.71 369.92 291 369.66 289.09C369.4 287.18 367.63 285.78 365.73 285.98L312.86 291.46C310.96 291.66 309.63 293.37 309.89 295.28C310.13 297.04 311.63 298.35 313.34 298.41Z" fill="#475577"/>
<path d="M339 20.7598V48.2898" stroke="#F28E02" stroke-width="3" stroke-miterlimit="10" stroke-linecap="round" stroke-linejoin="round"/>
<path d="M388.661 31.7295L377.541 56.9195" stroke="#F28E02" stroke-width="3" stroke-miterlimit="10" stroke-linecap="round" stroke-linejoin="round"/>
<path d="M430.51 62.1895L410.16 80.7495" stroke="#F28E02" stroke-width="3" stroke-miterlimit="10" stroke-linecap="round" stroke-linejoin="round"/>
<path d="M289.34 31.7295L300.46 56.9195" stroke="#F28E02" stroke-width="3" stroke-miterlimit="10" stroke-linecap="round" stroke-linejoin="round"/>
<path d="M247.49 62.1895L267.84 80.7495" stroke="#F28E02" stroke-width="3" stroke-miterlimit="10" stroke-linecap="round" stroke-linejoin="round"/>
<path d="M219.951 400.61C221 400.61 221.851 399.759 221.851 398.71C221.851 397.66 221 396.81 219.951 396.81C218.901 396.81 218.051 397.66 218.051 398.71C218.051 399.759 218.901 400.61 219.951 400.61Z" fill="#648ACC"/>
<path d="M240.371 400.61C241.42 400.61 242.271 399.759 242.271 398.71C242.271 397.66 241.42 396.81 240.371 396.81C239.321 396.81 238.471 397.66 238.471 398.71C238.471 399.759 239.321 400.61 240.371 400.61Z" fill="#648ACC"/>
<path d="M501.111 263.51C502.16 263.51 503.011 262.659 503.011 261.61C503.011 260.561 502.16 259.71 501.111 259.71C500.062 259.71 499.211 260.561 499.211 261.61C499.211 262.659 500.062 263.51 501.111 263.51Z" fill="#648ACC"/>
<path d="M511.791 263.51C512.84 263.51 513.691 262.659 513.691 261.61C513.691 260.561 512.84 259.71 511.791 259.71C510.741 259.71 509.891 260.561 509.891 261.61C509.891 262.659 510.741 263.51 511.791 263.51Z" fill="#648ACC"/>
<path d="M524.38 261.61C524.38 262.66 523.53 263.51 522.48 263.51C521.43 263.51 520.58 262.66 520.58 261.61C520.58 260.56 521.43 259.71 522.48 259.71C523.53 259.71 524.38 260.56 524.38 261.61Z" fill="#648ACC"/>
<path d="M491.111 240.449C492.16 240.449 493.011 239.599 493.011 238.549C493.011 237.5 492.16 236.649 491.111 236.649C490.062 236.649 489.211 237.5 489.211 238.549C489.211 239.599 490.062 240.449 491.111 240.449Z" fill="#648ACC"/>
<path d="M447.751 385.72C467.689 377.384 477.095 354.464 468.76 334.526C460.425 314.588 437.504 305.182 417.566 313.517C397.628 321.852 388.222 344.772 396.557 364.711C404.893 384.649 427.813 394.055 447.751 385.72Z" fill="#F28E02"/>
<path d="M438.939 377.18C454.185 373.715 463.736 358.547 460.271 343.301C456.806 328.055 441.638 318.505 426.392 321.97C411.146 325.434 401.596 340.602 405.061 355.848C408.525 371.094 423.693 380.645 438.939 377.18Z" fill="white"/>
<path d="M413.229 349.599C413.229 360.339 421.938 369.049 432.678 369.049C443.418 369.049 452.129 360.339 452.129 349.599C452.129 338.859 443.418 330.149 432.678 330.149C421.938 330.159 413.229 338.859 413.229 349.599Z" fill="#F28E02"/>
<path d="M422.49 349.6C422.49 355.23 427.05 359.79 432.68 359.79C438.31 359.79 442.87 355.23 442.87 349.6C442.87 343.97 438.31 339.41 432.68 339.41C427.05 339.42 422.49 343.98 422.49 349.6Z" fill="white"/>
<path d="M431.1 351.18H437.5L431.1 344.78V351.18Z" fill="#0C3656"/>
<path d="M472.58 309.7H479.9V307.86H474.43V302.38H472.58V309.7Z" fill="#0C3656"/>
<path d="M475.93 306.35H483.25V304.51H477.78V299.03H475.93V306.35Z" fill="#0C3656"/>
<path d="M476.494 304.468L432.236 348.726L433.544 350.034L477.802 305.776L476.494 304.468Z" fill="#0C3656"/>
<path d="M131.711 279.78L126.881 288.95C126.881 288.95 123.591 288.95 119.041 286.71C114.531 284.48 113.211 281.42 113.211 281.42L121.371 270.62" fill="#F886BC"/>
<path d="M141.971 262.46C146.461 265.11 139.041 281.86 134.991 282.92C130.941 283.98 122.901 276.06 120.501 269.36C118.101 262.65 125.821 258.99 130.351 257.62C134.891 256.26 141.971 262.46 141.971 262.46Z" fill="#F886BC"/>
<path d="M138.64 270.58C138.49 270.85 138.34 271.12 138.21 271.4C138.05 271.74 138.56 272.04 138.72 271.7C138.86 271.4 138.99 271.09 139.11 270.78C139.21 270.5 138.78 270.33 138.64 270.58Z" fill="#00276F"/>
<path d="M141.131 268.95C141.131 268.95 140.141 267.47 137.551 267.99" stroke="#00276F" stroke-width="0.75" stroke-miterlimit="10" stroke-linecap="round" stroke-linejoin="round"/>
<path d="M134.692 277.1L137.552 279.14C137.552 279.14 136.432 281.3 135.412 280.46C134.392 279.62 134.692 277.1 134.692 277.1Z" fill="white"/>
<path d="M146 266.13C143.96 265.47 141.72 264.23 140.18 263.46C138.12 263.89 135.97 265.82 135.92 268.01C135.91 268.5 135.86 269.17 135.37 269.24C135.03 269.29 134.75 268.96 134.66 268.63C134.57 268.3 134.58 267.95 134.44 267.63C134.17 267 133.33 266.74 132.68 266.97C132.03 267.19 131.56 267.79 131.29 268.42C130.61 270.05 130 272.02 131.56 273.39C131.8 273.6 132.08 273.79 132.24 274.07C132.58 274.68 132.18 275.43 131.78 276C130.54 277.78 128.68 279.78 125.03 279.78C122.47 279.78 118.2 276.4 117.92 274.71C117.89 274.56 115.44 264.2 120 257.62C122.44 254.09 126.75 251.51 131.23 251.89C134 252.12 136.42 253.75 137.78 254.81C145.26 256.18 146.86 263.89 146 266.13Z" fill="#212237"/>
<path d="M141.681 272.25C141.681 272.25 142.341 277.27 141.351 277.82C140.361 278.37 138.271 276.94 138.271 276.94" fill="#F886BC"/>
<path d="M143.741 408.22L140.081 431.86L139.891 438.98L167.811 438.84C168.491 438.84 169.041 438.28 169.041 437.6C169.041 437.09 168.721 436.63 168.241 436.45L156.201 430.91L160.961 406.35" fill="#F886BC"/>
<path d="M170.251 438.539C169.961 437.649 169.441 436.639 168.911 436.409L156.141 430.909C149.101 433.759 140.001 431.579 140.001 431.579L138.381 441.189C138.381 441.509 138.641 441.759 138.961 441.759L170.041 441.599C170.661 441.609 170.261 438.569 170.251 438.539Z" fill="#4868EF"/>
<path d="M158.911 431.47C158.191 432.4 157.591 433.42 157.111 434.49" stroke="#273B7A" stroke-width="0.75" stroke-miterlimit="10"/>
<path d="M160.521 432.43C159.781 433.46 159.481 434.05 159.041 435" stroke="#273B7A" stroke-width="0.75" stroke-miterlimit="10"/>
<path d="M161.88 433.13C161.38 433.81 160.88 434.74 160.49 435.49" stroke="#273B7A" stroke-width="0.75" stroke-miterlimit="10"/>
<path d="M138.541 439.7L170.381 439.54" stroke="#273B7A" stroke-width="0.75" stroke-miterlimit="10"/>
<path d="M139.432 435C139.432 435 146.912 435.15 147.552 439.66" stroke="#273B7A" stroke-width="0.75" stroke-miterlimit="10"/>
<path d="M166.3 435.29C166.3 435.29 164.24 438.22 163.83 439.57" stroke="#273B7A" stroke-width="0.75" stroke-miterlimit="10"/>
<path d="M57.0897 414.419L33.7997 411.649L26.6797 411.459L26.8197 439.379C26.8197 440.059 27.3797 440.609 28.0597 440.609C28.5697 440.609 29.0297 440.289 29.2097 439.809L34.7497 427.769L58.8897 430.489" fill="#F886BC"/>
<path d="M27.1204 441.819C28.0104 441.529 29.0204 441.009 29.2504 440.479L34.7504 427.709C31.9004 420.669 34.0804 411.569 34.0804 411.569L24.4704 409.949C24.1504 409.949 23.9004 410.209 23.9004 410.529L24.0604 441.609C24.0504 442.229 27.0904 441.819 27.1204 441.819Z" fill="#4868EF"/>
<path d="M34.1899 430.48C33.2599 429.76 32.2399 429.16 31.1699 428.68" stroke="#273B7A" stroke-width="0.75" stroke-miterlimit="10"/>
<path d="M33.2302 432.08C32.2002 431.34 31.6102 431.04 30.6602 430.6" stroke="#273B7A" stroke-width="0.75" stroke-miterlimit="10"/>
<path d="M32.5299 433.439C31.8499 432.939 30.9199 432.439 30.1699 432.049" stroke="#273B7A" stroke-width="0.75" stroke-miterlimit="10"/>
<path d="M25.9609 410.109L26.1309 441.949" stroke="#273B7A" stroke-width="0.75" stroke-miterlimit="10"/>
<path d="M30.66 410.989C30.66 410.989 30.51 418.469 26 419.109" stroke="#273B7A" stroke-width="0.75" stroke-miterlimit="10"/>
<path d="M30.3698 437.86C30.3698 437.86 27.4398 435.8 26.0898 435.39" stroke="#273B7A" stroke-width="0.75" stroke-miterlimit="10"/>
<path d="M70.9403 349.52C65.9303 362.9 74.1003 382.33 74.1003 382.33L78.4103 413.62L37.5703 411.82L37.9703 438.98C37.9703 438.98 81.7803 442.1 92.3703 442.1C102.97 442.1 107.06 439.73 110.17 433.52C114.8 424.27 108.14 373.13 108.14 372.28L100.87 339.43" fill="#22252D"/>
<path d="M42.4707 412.04L42.7807 439.32" stroke="#474B51" stroke-width="0.75" stroke-miterlimit="10"/>
<path d="M85.1112 356.75C85.1112 356.75 80.4712 380.44 104.011 385.53C114.531 387.81 141.271 388.55 141.271 388.55L136.701 425.15H163.411C163.411 425.15 168.941 397.57 170.611 379.12C171.721 366.85 166.441 361.36 156.521 360.13C148.121 359.09 122.861 357.45 122.861 357.45L118.611 352.12" fill="#22252D"/>
<path d="M109.29 386.379C109.29 386.379 89.4802 386.439 84.7402 364.239" stroke="#474B51" stroke-width="0.75" stroke-miterlimit="10"/>
<path d="M95.1895 362.149C95.1895 362.149 100.549 363.179 107.529 362.719" stroke="#474B51" stroke-width="0.75" stroke-miterlimit="10"/>
<path d="M69.3301 359.02C69.3301 359.02 74.6101 360.53 78.0401 360.5" stroke="#474B51" stroke-width="0.75" stroke-miterlimit="10"/>
<path d="M138.471 420.399H164.401" stroke="#474B51" stroke-width="0.75" stroke-miterlimit="10"/>
<path d="M193.919 319.359H191.789V342.599H193.919V319.359Z" fill="#648ACC"/>
<path d="M192.859 320.93C195.024 320.93 196.779 319.175 196.779 317.01C196.779 314.845 195.024 313.09 192.859 313.09C190.694 313.09 188.939 314.845 188.939 317.01C188.939 319.175 190.694 320.93 192.859 320.93Z" fill="#648ACC"/>
<path d="M173.191 323.68L181.071 324.26C181.071 324.26 187.131 322.21 189.541 322.16C191.021 322.13 191.791 322.91 191.791 322.91C191.791 322.91 191.791 323.71 191.791 325.29C191.791 326.88 193.921 327.58 193.921 326.5V325.19C193.941 325.28 198.291 327.34 195.741 329.3C196.931 329.55 197.571 331.22 195.301 332.38C196.021 332.87 196.851 334.23 195.191 335.32C195.931 336.44 194.431 337.68 193.241 337.93C190.991 338.42 172.951 338.04 172.951 338.04" fill="#F886BC"/>
<path d="M127.18 288.08C140.13 306 133.17 311.8 123.87 357.5C92.7802 357.5 68.9902 352.12 68.9902 352.12C68.9902 352.12 76.3902 328.14 90.1202 301.44C96.6602 288.71 107.54 282.38 113.7 280.76" fill="#4868EF"/>
<path d="M107.529 308.23C107.529 308.23 127.539 339.57 137.049 340.96C152.149 343.17 177.119 342.55 177.119 342.55L178.609 320.5C178.609 320.5 146.509 318.88 145.189 318.12C140.889 315.68 127.179 288.08 127.179 288.08" fill="#4868EF"/>
<path d="M128.839 335.239C128.839 335.239 117.099 325.489 109.279 310.359" stroke="#273B7A" stroke-width="0.75" stroke-miterlimit="10"/>
<path d="M173.99 320.25L172.1 342.63" stroke="#273B7A" stroke-width="0.75" stroke-miterlimit="10"/>
<path d="M598.692 285.649C598.212 289.929 594.762 302.109 595.492 302.619C596.212 303.129 597.482 298.859 597.992 299.389C598.502 299.919 597.002 306.619 597.852 306.929C599.012 307.359 600.182 300.419 600.182 300.419C600.182 300.419 599.272 308.089 600.392 308.169C601.182 308.229 602.142 302.409 602.792 300.229C602.392 302.679 602.212 306.729 603.032 306.769C603.842 306.809 604.582 302.859 605.312 299.869C605.032 301.779 604.712 305.289 605.472 305.359C606.222 305.429 608.692 295.959 610.662 286.939" fill="#F886BC"/>
<path d="M612.631 226.89C612.631 226.89 619.561 239.2 620.561 246.76C623.031 265.38 607.581 296.91 607.581 296.91C607.581 296.91 596.361 293.85 596.361 292.44C596.361 291.03 604.181 257.9 604.181 257.9L592.961 232" fill="#F886BC"/>
<path d="M578.92 186.46L580.43 200.34C580.43 200.34 572.11 207.4 564.74 199.49L565.64 190.35L578.92 186.46Z" fill="#F886BC"/>
<path d="M567.311 172.55C567.311 172.55 558.301 184.96 561.981 189.61C564.701 193.04 571.821 193.43 574.021 192.08C574.491 189.54 580.331 181.14 579.401 179.27C575.821 172.14 567.311 172.55 567.311 172.55Z" fill="#F886BC"/>
<path d="M581.341 174.7C581.051 170.01 576.421 168.64 567.541 169.17C566.351 169.24 564.241 168.43 563.691 169.49C562.971 170.88 562.841 173.69 564.231 174.95C565.161 175.79 565.781 175.98 567.011 176.26C568.621 176.64 570.261 178.17 569.401 179.85C569.181 180.29 568.641 181.04 568.981 181.4C569.151 181.58 569.721 181.79 569.941 181.91C570.581 182.25 570.541 183.22 570.141 183.83C569.741 184.44 569.921 185.11 569.521 185.71C568.571 187.14 569.701 189.78 571.171 190.65C572.481 191.42 576.761 192.72 579.901 191.09C582.621 189.68 584.251 185.84 584.281 178.94C584.291 176.3 582.331 174.52 581.341 174.7Z" fill="#212237"/>
<path d="M568.29 181.79C569.75 179.94 570.94 180.23 571.58 181.25C572.44 182.61 570.71 185.43 569.91 185.91C568.28 186.89 566.96 186.78 566.83 185.46" fill="#F886BC"/>
<path d="M564.682 178.95C564.262 179.3 563.872 179.93 564.102 180.4C564.172 180.53 564.292 180.59 564.442 180.58C565.382 180.48 565.562 178.22 564.682 178.95Z" fill="#28364C"/>
<path d="M564.801 177.229C565.391 177.439 566.341 177.97 566.681 178.71" stroke="#28364C" stroke-width="0.75" stroke-miterlimit="10"/>
<path d="M564.781 185.56L562.721 184.46C562.721 184.46 561.371 186.99 562.331 187.52C563.391 188.12 564.781 185.56 564.781 185.56Z" fill="white"/>
<path d="M533.74 442.102L566.25 442.077L566.249 440.617L533.739 440.642L533.74 442.102Z" fill="#103BB2"/>
<path d="M561.632 428.619L564.442 429.279C564.442 429.279 565.522 432.949 565.932 435.509C566.342 438.069 566.252 440.619 566.252 440.619L533.742 440.639C533.742 440.639 534.592 437.819 542.352 433.279C545.412 431.489 546.962 429.439 546.962 429.439L561.632 428.619Z" fill="#22252D"/>
<path d="M564.973 416.92L564.443 429.28C564.443 429.28 563.083 430.93 557.563 430.93C552.043 430.93 546.973 429.44 546.973 429.44L545.883 412.77" fill="#F2B18F"/>
<path d="M580.039 442.102L612.549 442.077L612.548 440.617L580.038 440.642L580.039 442.102Z" fill="#103BB2"/>
<path d="M607.931 428.619L610.741 429.279C610.741 429.279 611.821 432.949 612.231 435.509C612.641 438.069 612.551 440.619 612.551 440.619L580.041 440.639C580.041 440.639 580.891 437.819 588.651 433.279C591.711 431.489 593.261 429.439 593.261 429.439L607.931 428.619Z" fill="#22252D"/>
<path d="M609.641 416.42L610.741 429.28C610.741 429.28 609.381 430.93 603.861 430.93C598.341 430.93 593.271 429.44 593.271 429.44L590.771 412.77" fill="#F2B18F"/>
<path d="M604.401 288.52C604.401 288.52 609.471 299.08 605.401 319.28C607.471 364.38 612.871 425.02 612.871 425.02L581.901 424.91C581.901 424.91 575.591 359.73 571.831 327.25C567.651 291.07 565.031 246.76 565.031 246.76" fill="#0070E4"/>
<path d="M586.892 424.92C586.892 424.92 580.582 359.74 576.822 327.26" stroke="#0B2E6B" stroke-width="0.75" stroke-miterlimit="10"/>
<path d="M545.262 290.54C545.262 290.54 541.972 338.09 541.972 360.91C541.972 383.73 540.502 425.02 540.502 425.02H571.802L583.452 317.09C592.992 305.66 592.292 280.87 589.992 271.22L558.952 262.74L545.262 290.54Z" fill="#0070E4"/>
<path d="M577.062 376.36L583.463 317.09C591.463 308.17 591.463 296.91 591.463 296.91" stroke="#0B2E6B" stroke-width="0.75" stroke-miterlimit="10"/>
<path d="M551.793 285.77L544.393 425.03" stroke="#0B2E6B" stroke-width="0.75" stroke-miterlimit="10"/>
<path d="M572.352 298.319L587.562 298.619" stroke="#0B2E6B" stroke-width="0.75" stroke-miterlimit="10"/>
<path d="M598.402 297.84L604.182 297.72" stroke="#0B2E6B" stroke-width="0.75" stroke-miterlimit="10"/>
<path d="M518.871 218.11C514.631 213.31 503.241 195.05 501.961 195.34C500.681 195.63 504.131 201.28 503.031 201.32C501.941 201.36 496.041 193.03 494.841 193.65C493.211 194.5 499.701 202.72 499.701 202.72C499.701 202.72 497.161 199.23 495.961 200.38C495.111 201.19 495.561 202.9 497.321 205.79C496.141 204.31 495.021 204.05 494.161 204.92C493.301 205.78 494.151 207.35 495.211 208.94C494.381 207.9 493.161 207.37 492.851 208.46C492.441 209.88 495.891 217.25 504.041 229.27" fill="#F886BC"/>
<path d="M580.281 198.93C580.281 198.93 598.221 199.68 603.601 220.1C606.031 229.3 607.591 292.42 607.591 292.42L542.051 291.98C542.051 291.98 542.921 234.92 544.391 222.56C547.071 199.98 564.851 198.57 564.851 198.57C564.851 198.57 565.661 200.57 572.611 200.57C579.561 200.57 580.281 198.93 580.281 198.93Z" fill="#D8CAC0"/>
<path d="M580.281 198.93C601.571 198.93 614.681 228.17 614.681 228.17L601.291 234.89" fill="#D8CAC0"/>
<path d="M552.151 240.42C552.151 240.42 540.791 256.77 531.621 257.66C519.291 258.85 497.361 217.81 497.361 217.81L511.201 208.46L530.151 232.29L536.611 222.63" fill="#F886BC"/>
<path d="M564.83 198.58C546.5 199.59 533.08 226.89 533.08 226.89L554.54 242.3L566.72 226.41" fill="#D8CAC0"/>
<path d="M553.791 241.76L564.181 228.25" stroke="#846A6A" stroke-width="0.75" stroke-miterlimit="10"/>
<path d="M605.401 232.84C604.211 224.25 601.291 216.92 601.291 216.92" stroke="#846A6A" stroke-width="0.75" stroke-miterlimit="10"/>
<path d="M563.911 179.99C563.911 179.99 560.961 181.41 561.111 181.95C561.261 182.49 562.141 183.8 562.141 183.8" fill="#F886BC"/>
<path d="M540.5 418.24H572.35" stroke="#0B2E6B" stroke-width="0.75" stroke-miterlimit="10"/>
<path d="M581.24 418.51H612.22" stroke="#0B2E6B" stroke-width="0.75" stroke-miterlimit="10"/>
</svg>
