<svg width="512" height="512" viewBox="0 0 512 512" fill="none" xmlns="http://www.w3.org/2000/svg">
<path d="M91.8606 206.239L87.9796 191.748L30.0156 207.29L33.8956 221.77L37.7786 236.265L95.7426 220.723L91.8606 206.239Z" fill="#474F54"/>
<path d="M95.7415 220.722L91.8595 206.238L33.8945 221.769L37.7775 236.264L95.7415 220.722Z" fill="#32393F"/>
<path d="M149.809 190.712L138.165 147.246L65.7285 166.655L77.3715 210.121L89.0195 253.594L161.456 234.185L149.809 190.712Z" fill="#FFA600"/>
<path d="M77.418 210.117L149.86 190.694L161.517 234.17L89.0745 253.593L77.418 210.117Z" fill="#FF9100"/>
<path d="M468.597 105.29L449.098 32.998L376.499 52.499L353.396 108.075L363.167 133.541L380.633 179.06L415.498 197.099L488.1 177.598L468.597 105.29Z" fill="#474F54"/>
<path d="M415.499 197.1L488.101 177.599L468.598 105.291L363.168 133.542L380.634 179.061L415.499 197.1Z" fill="#32393F"/>
<path d="M395.987 124.748L376.501 52.5L115.801 122.1L135.312 194.595L154.8 267.001L415.5 197.1L395.987 124.748Z" fill="#FFA600" fill-opacity="0.67"/>
<path d="M415.499 197.1L395.986 124.748L135.311 194.595L154.799 267.001L415.499 197.1Z" fill="#FFA600"/>
<path d="M48.384 217.887L28.975 145.443L0 153.207L19.409 225.651L38.818 298.095L67.793 290.331L48.384 217.887Z" fill="#575F64"/>
<path d="M19.457 225.66L48.4341 217.891L67.8589 290.34L38.8818 298.109L19.457 225.66Z" fill="#474F54"/>
<path d="M483.053 101.418L455.873 0L426.898 7.764L454.079 109.182L483.024 213L511.999 205.236L483.053 101.418Z" fill="#FFA600" fill-opacity="0.67"/>
<path d="M512 205.236L483.054 101.418L454.08 109.182L483.025 213L512 205.236Z" fill="#FFA600"/>
<path d="M385.272 482L277.432 265.32C291.398 257.674 301 243.014 301 226C301 201.186 280.814 181 256 181C231.186 181 211 201.186 211 226C211 243.014 220.602 257.674 234.568 265.32L126.728 482H91V512H145.272L241 319.545V482H211V512H256H301V482H271V319.545L366.728 512H421V482H385.272Z" fill="#474F54"/>
<path d="M301 482H271V319.545L366.728 512H421V482H385.272L277.432 265.32C291.398 257.674 301 243.014 301 226C301 201.186 280.814 181 256 181V512H301V482Z" fill="#32393F"/>
<path d="M256 241C264.284 241 271 234.284 271 226C271 217.716 264.284 211 256 211C247.716 211 241 217.716 241 226C241 234.284 247.716 241 256 241Z" fill="#FFA600"/>
<path d="M271 226C271 217.716 264.284 211 256 211V241C264.284 241 271 234.284 271 226Z" fill="#FF9100"/>
</svg>
